<mxfile host="app.diagrams.net" modified="2024-04-16T19:29:23.082Z" agent="Mozilla/5.0 (Windows NT 10.0; Win64; x64) AppleWebKit/537.36 (KHTML, like Gecko) Chrome/123.0.0.0 Safari/537.36" etag="kXhV4dEG06rGMzWGuDU-" version="24.2.5" type="github">
  <diagram id="6a731a19-8d31-9384-78a2-239565b7b9f0" name="Page-1">
    <mxGraphModel dx="5266" dy="3785" grid="1" gridSize="10" guides="1" tooltips="1" connect="1" arrows="1" fold="1" page="1" pageScale="1" pageWidth="1169" pageHeight="827" background="none" math="0" shadow="0">
      <root>
        <mxCell id="0" />
        <mxCell id="1" parent="0" />
        <mxCell id="WLHqO2OZkGNbgsktWJH0-1776" style="endArrow=none;strokeWidth=6;strokeColor=#C73500;html=1;fillColor=#fa6800;" edge="1" parent="1" source="1515" target="WLHqO2OZkGNbgsktWJH0-1732">
          <mxGeometry relative="1" as="geometry">
            <mxPoint x="1177" y="707" as="sourcePoint" />
            <mxPoint x="1448" y="268" as="targetPoint" />
          </mxGeometry>
        </mxCell>
        <mxCell id="1350" value="physical&lt;br&gt;&lt;div&gt;بدني&lt;br&gt;qb-gym&lt;/div&gt;" style="ellipse;whiteSpace=wrap;html=1;shadow=0;fontFamily=Helvetica;fontSize=20;fontColor=#FFFFFF;align=center;strokeWidth=3;fillColor=#1699D3;strokeColor=none;" parent="1" vertex="1">
          <mxGeometry x="109.5" y="-940.7099999999999" width="120" height="120" as="geometry" />
        </mxCell>
        <mxCell id="1359" style="endArrow=none;strokeWidth=6;strokeColor=#1699D3;html=1;" parent="1" source="1515" target="1350" edge="1">
          <mxGeometry relative="1" as="geometry" />
        </mxCell>
        <mxCell id="1373" value="100%" style="rounded=1;fillColor=#dae8fc;strokeColor=#6c8ebf;strokeWidth=3;shadow=0;html=1;arcSize=50;" parent="1" vertex="1">
          <mxGeometry x="384.87" y="-1194.59" width="30" height="30" as="geometry" />
        </mxCell>
        <mxCell id="1377" value="" style="edgeStyle=none;endArrow=none;strokeWidth=3;strokeColor=#64BBE2;html=1;" parent="1" source="1350" target="WLHqO2OZkGNbgsktWJH0-1553" edge="1">
          <mxGeometry x="-221.5" y="56.5" width="100" height="100" as="geometry">
            <mxPoint x="-635.5" y="-1055.71" as="sourcePoint" />
            <mxPoint x="313.125" y="-820.7099999999999" as="targetPoint" />
          </mxGeometry>
        </mxCell>
        <mxCell id="1379" value="" style="edgeStyle=none;endArrow=none;strokeWidth=3;strokeColor=#64BBE2;html=1;exitX=0.5;exitY=1;exitDx=0;exitDy=0;" parent="1" source="1350" target="WLHqO2OZkGNbgsktWJH0-1549" edge="1">
          <mxGeometry x="-221.5" y="56.5" width="100" height="100" as="geometry">
            <mxPoint x="-635.5" y="-1055.71" as="sourcePoint" />
            <mxPoint x="94.19230769230762" y="-770.7099999999999" as="targetPoint" />
          </mxGeometry>
        </mxCell>
        <mxCell id="1380" value="" style="edgeStyle=none;endArrow=none;strokeWidth=3;strokeColor=#64BBE2;html=1;exitX=0;exitY=1;exitDx=0;exitDy=0;" parent="1" source="1350" target="WLHqO2OZkGNbgsktWJH0-1548" edge="1">
          <mxGeometry x="-221.5" y="56.5" width="100" height="100" as="geometry">
            <mxPoint x="-635.5" y="-1055.71" as="sourcePoint" />
            <mxPoint x="57" y="-820.7099999999999" as="targetPoint" />
          </mxGeometry>
        </mxCell>
        <mxCell id="1381" value="" style="edgeStyle=none;endArrow=none;strokeWidth=3;strokeColor=#64BBE2;html=1;exitX=0.005;exitY=0.617;exitDx=0;exitDy=0;exitPerimeter=0;" parent="1" source="1350" target="WLHqO2OZkGNbgsktWJH0-1547" edge="1">
          <mxGeometry x="-221.5" y="56.5" width="100" height="100" as="geometry">
            <mxPoint x="-635.5" y="-1055.71" as="sourcePoint" />
            <mxPoint x="46" y="-880.7099999999999" as="targetPoint" />
          </mxGeometry>
        </mxCell>
        <mxCell id="1382" value="" style="edgeStyle=none;endArrow=none;strokeWidth=3;strokeColor=#64BBE2;html=1;exitX=0.047;exitY=0.344;exitDx=0;exitDy=0;exitPerimeter=0;" parent="1" source="1350" target="WLHqO2OZkGNbgsktWJH0-1545" edge="1">
          <mxGeometry x="-221.5" y="56.5" width="100" height="100" as="geometry">
            <mxPoint x="-635.5" y="-1055.71" as="sourcePoint" />
            <mxPoint x="51.80769230769238" y="-925.7099999999999" as="targetPoint" />
          </mxGeometry>
        </mxCell>
        <mxCell id="1384" value="" style="edgeStyle=none;endArrow=none;strokeWidth=3;strokeColor=#64BBE2;html=1;exitX=0.371;exitY=0.024;exitDx=0;exitDy=0;exitPerimeter=0;" parent="1" source="1350" target="WLHqO2OZkGNbgsktWJH0-1544" edge="1">
          <mxGeometry x="-221.5" y="56.5" width="100" height="100" as="geometry">
            <mxPoint x="-635.5" y="-1055.71" as="sourcePoint" />
            <mxPoint x="140.8378378378377" y="-1032.21" as="targetPoint" />
          </mxGeometry>
        </mxCell>
        <mxCell id="1385" value="" style="edgeStyle=none;endArrow=none;strokeWidth=3;strokeColor=#64BBE2;html=1;" parent="1" source="1350" target="1373" edge="1">
          <mxGeometry x="-221.5" y="56.5" width="100" height="100" as="geometry">
            <mxPoint x="-635.5" y="-1055.71" as="sourcePoint" />
            <mxPoint x="-535.5" y="-1155.71" as="targetPoint" />
          </mxGeometry>
        </mxCell>
        <mxCell id="1515" value="momentum&lt;br&gt;map" style="ellipse;whiteSpace=wrap;html=1;shadow=0;fontFamily=Helvetica;fontSize=30;fontColor=#2F5B7C;align=center;strokeColor=#2F5B7C;strokeWidth=6;fillColor=#FFFFFF;fontStyle=1;gradientColor=none;" parent="1" vertex="1">
          <mxGeometry x="1029" y="-1080" width="270" height="270" as="geometry" />
        </mxCell>
        <mxCell id="104TM-tIM6dC0J846HSY-1542" value="" style="edgeStyle=none;endArrow=none;strokeWidth=3;strokeColor=#64BBE2;html=1;exitX=1;exitY=1;exitDx=0;exitDy=0;" parent="1" source="1350" target="WLHqO2OZkGNbgsktWJH0-1550" edge="1">
          <mxGeometry x="-221.5" y="56.5" width="100" height="100" as="geometry">
            <mxPoint x="147" y="-820.2099999999999" as="sourcePoint" />
            <mxPoint x="217.4032258064517" y="-745.7099999999999" as="targetPoint" />
          </mxGeometry>
        </mxCell>
        <mxCell id="WLHqO2OZkGNbgsktWJH0-1544" value="90%" style="rounded=1;fillColor=#dae8fc;strokeColor=#6c8ebf;strokeWidth=3;shadow=0;html=1;arcSize=50;" vertex="1" parent="1">
          <mxGeometry x="150" y="-1235.09" width="30" height="30" as="geometry" />
        </mxCell>
        <mxCell id="WLHqO2OZkGNbgsktWJH0-1546" value="" style="edgeStyle=none;endArrow=none;strokeWidth=3;strokeColor=#64BBE2;html=1;exitX=0.186;exitY=0.126;exitDx=0;exitDy=0;exitPerimeter=0;" edge="1" parent="1" source="1350" target="WLHqO2OZkGNbgsktWJH0-1551">
          <mxGeometry x="-221.5" y="56.5" width="100" height="100" as="geometry">
            <mxPoint x="138" y="-932.2099999999999" as="sourcePoint" />
            <mxPoint x="106" y="-982.2099999999999" as="targetPoint" />
          </mxGeometry>
        </mxCell>
        <mxCell id="WLHqO2OZkGNbgsktWJH0-1545" value="70%" style="rounded=1;fillColor=#dae8fc;strokeColor=#6c8ebf;strokeWidth=3;shadow=0;html=1;arcSize=50;" vertex="1" parent="1">
          <mxGeometry x="-70" y="-1040.09" width="30" height="30" as="geometry" />
        </mxCell>
        <mxCell id="WLHqO2OZkGNbgsktWJH0-1547" value="60%" style="rounded=1;fillColor=#dae8fc;strokeColor=#6c8ebf;strokeWidth=3;shadow=0;html=1;arcSize=50;" vertex="1" parent="1">
          <mxGeometry x="-100" y="-945.8" width="30" height="30" as="geometry" />
        </mxCell>
        <mxCell id="WLHqO2OZkGNbgsktWJH0-1548" value="50%" style="rounded=1;fillColor=#dae8fc;strokeColor=#6c8ebf;strokeWidth=3;shadow=0;html=1;arcSize=50;" vertex="1" parent="1">
          <mxGeometry y="-795.0899999999999" width="30" height="30" as="geometry" />
        </mxCell>
        <mxCell id="WLHqO2OZkGNbgsktWJH0-1549" value="40%" style="rounded=1;fillColor=#dae8fc;strokeColor=#6c8ebf;strokeWidth=3;shadow=0;html=1;arcSize=50;" vertex="1" parent="1">
          <mxGeometry x="154.5" y="-726.5899999999999" width="30" height="30" as="geometry" />
        </mxCell>
        <mxCell id="WLHqO2OZkGNbgsktWJH0-1550" value="30%" style="rounded=1;fillColor=#dae8fc;strokeColor=#6c8ebf;strokeWidth=3;shadow=0;html=1;arcSize=50;" vertex="1" parent="1">
          <mxGeometry x="316.5" y="-726.5899999999999" width="30" height="30" as="geometry" />
        </mxCell>
        <mxCell id="WLHqO2OZkGNbgsktWJH0-1551" value="80%" style="rounded=1;fillColor=#dae8fc;strokeColor=#6c8ebf;strokeWidth=3;shadow=0;html=1;arcSize=50;" vertex="1" parent="1">
          <mxGeometry x="15" y="-1245.09" width="30" height="30" as="geometry" />
        </mxCell>
        <mxCell id="WLHqO2OZkGNbgsktWJH0-1553" value="20%" style="rounded=1;fillColor=#dae8fc;strokeColor=#6c8ebf;strokeWidth=3;shadow=0;html=1;arcSize=50;" vertex="1" parent="1">
          <mxGeometry x="418.5" y="-905.0899999999999" width="30" height="30" as="geometry" />
        </mxCell>
        <mxCell id="WLHqO2OZkGNbgsktWJH0-1555" value="" style="edgeStyle=none;endArrow=none;strokeWidth=3;strokeColor=#64BBE2;html=1;" edge="1" parent="1" source="1350" target="WLHqO2OZkGNbgsktWJH0-1554">
          <mxGeometry x="-221.5" y="56.5" width="100" height="100" as="geometry">
            <mxPoint x="226" y="-901.2099999999999" as="sourcePoint" />
            <mxPoint x="292.41700000000014" y="-924.7735" as="targetPoint" />
          </mxGeometry>
        </mxCell>
        <mxCell id="WLHqO2OZkGNbgsktWJH0-1554" value="10%" style="rounded=1;fillColor=#dae8fc;strokeColor=#6c8ebf;strokeWidth=3;shadow=0;html=1;arcSize=50;" vertex="1" parent="1">
          <mxGeometry x="276" y="-1015.7099999999999" width="30" height="30" as="geometry" />
        </mxCell>
        <mxCell id="WLHqO2OZkGNbgsktWJH0-1561" value="&lt;font style=&quot;font-size: 8px;&quot;&gt;&amp;nbsp;زيادة 5 ثواني في الماء عند الغوص&lt;/font&gt;" style="rounded=1;fillColor=#ffe6cc;strokeColor=#d79b00;strokeWidth=3;shadow=0;html=1;arcSize=50;" vertex="1" parent="1">
          <mxGeometry x="276" y="-1110.09" width="103.5" height="49.5" as="geometry" />
        </mxCell>
        <mxCell id="WLHqO2OZkGNbgsktWJH0-1564" value="" style="endArrow=none;html=1;rounded=0;fillColor=#f8cecc;strokeColor=#b85450;" edge="1" parent="1" source="WLHqO2OZkGNbgsktWJH0-1554" target="WLHqO2OZkGNbgsktWJH0-1563">
          <mxGeometry width="50" height="50" relative="1" as="geometry">
            <mxPoint x="306" y="-1002.2099999999999" as="sourcePoint" />
            <mxPoint x="398" y="-1012.2099999999999" as="targetPoint" />
            <Array as="points" />
          </mxGeometry>
        </mxCell>
        <mxCell id="WLHqO2OZkGNbgsktWJH0-1563" value="&lt;font style=&quot;font-size: 9px;&quot;&gt;زيادة 5 ثواني نفس عند الركض&lt;/font&gt;" style="rounded=1;fillColor=#d5e8d4;strokeColor=#82b366;strokeWidth=3;shadow=0;html=1;arcSize=50;" vertex="1" parent="1">
          <mxGeometry x="370" y="-1062.21" width="100.75" height="46.5" as="geometry" />
        </mxCell>
        <mxCell id="WLHqO2OZkGNbgsktWJH0-1566" value="&lt;font style=&quot;font-size: 9px;&quot;&gt;تقليل نسبة الضرر عند القفز من&lt;/font&gt;&lt;div&gt;&lt;font style=&quot;font-size: 9px;&quot;&gt;&amp;nbsp;ارتفاع 1 متر او اكثر&lt;/font&gt;&lt;/div&gt;" style="rounded=1;fillColor=#f8cecc;strokeColor=#b85450;strokeWidth=3;shadow=0;html=1;arcSize=50;" vertex="1" parent="1">
          <mxGeometry x="346.5" y="-1005.0899999999999" width="106.5" height="49.75" as="geometry" />
        </mxCell>
        <mxCell id="WLHqO2OZkGNbgsktWJH0-1567" value="" style="endArrow=none;html=1;rounded=0;fillColor=#f8cecc;strokeColor=#b85450;" edge="1" parent="1" source="WLHqO2OZkGNbgsktWJH0-1554" target="WLHqO2OZkGNbgsktWJH0-1566">
          <mxGeometry width="50" height="50" relative="1" as="geometry">
            <mxPoint x="316" y="-993.2099999999999" as="sourcePoint" />
            <mxPoint x="336" y="-995.2099999999999" as="targetPoint" />
            <Array as="points" />
          </mxGeometry>
        </mxCell>
        <mxCell id="WLHqO2OZkGNbgsktWJH0-1568" value="&lt;span style=&quot;font-size: 9px;&quot;&gt;زيادة 5 ثواني نفس عند الركض&lt;/span&gt;" style="rounded=1;fillColor=#f8cecc;strokeColor=#b85450;strokeWidth=3;shadow=0;html=1;arcSize=50;" vertex="1" parent="1">
          <mxGeometry x="510" y="-895.0899999999999" width="120" height="51.13" as="geometry" />
        </mxCell>
        <mxCell id="WLHqO2OZkGNbgsktWJH0-1569" value="" style="endArrow=none;html=1;rounded=0;fillColor=#f8cecc;strokeColor=#b85450;" edge="1" parent="1" target="WLHqO2OZkGNbgsktWJH0-1568" source="WLHqO2OZkGNbgsktWJH0-1553">
          <mxGeometry width="50" height="50" relative="1" as="geometry">
            <mxPoint x="435" y="-879.5899999999999" as="sourcePoint" />
            <mxPoint x="481.99999999999955" y="-890.0899999999999" as="targetPoint" />
            <Array as="points" />
          </mxGeometry>
        </mxCell>
        <mxCell id="WLHqO2OZkGNbgsktWJH0-1570" value="&lt;font style=&quot;font-size: 9px;&quot;&gt;تقليل نسبة 10% من فشل تكرار عند القفز&lt;/font&gt;" style="rounded=1;fillColor=#ffe6cc;strokeColor=#d79b00;strokeWidth=3;shadow=0;html=1;arcSize=50;" vertex="1" parent="1">
          <mxGeometry x="488.5" y="-961.5899999999999" width="141.5" height="51.5" as="geometry" />
        </mxCell>
        <mxCell id="WLHqO2OZkGNbgsktWJH0-1571" value="" style="endArrow=none;html=1;rounded=0;fillColor=#f8cecc;strokeColor=#b85450;" edge="1" parent="1" target="WLHqO2OZkGNbgsktWJH0-1570" source="WLHqO2OZkGNbgsktWJH0-1553">
          <mxGeometry width="50" height="50" relative="1" as="geometry">
            <mxPoint x="455" y="-912.3399999999999" as="sourcePoint" />
            <mxPoint x="485" y="-912.3399999999999" as="targetPoint" />
            <Array as="points" />
          </mxGeometry>
        </mxCell>
        <mxCell id="WLHqO2OZkGNbgsktWJH0-1572" value="&lt;font style=&quot;font-size: 9px;&quot;&gt;زيادة نسبة استرجاع النفس 5% اسرع&lt;/font&gt;" style="rounded=1;fillColor=#d5e8d4;strokeColor=#82b366;strokeWidth=3;shadow=0;html=1;arcSize=50;" vertex="1" parent="1">
          <mxGeometry x="446.5" y="-830.0899999999999" width="130" height="46.5" as="geometry" />
        </mxCell>
        <mxCell id="WLHqO2OZkGNbgsktWJH0-1573" value="" style="endArrow=none;html=1;rounded=0;fillColor=#f8cecc;strokeColor=#b85450;entryX=0.5;entryY=0;entryDx=0;entryDy=0;" edge="1" parent="1" target="WLHqO2OZkGNbgsktWJH0-1572" source="WLHqO2OZkGNbgsktWJH0-1553">
          <mxGeometry width="50" height="50" relative="1" as="geometry">
            <mxPoint x="425" y="-855.0899999999999" as="sourcePoint" />
            <mxPoint x="455" y="-855.0899999999999" as="targetPoint" />
            <Array as="points" />
          </mxGeometry>
        </mxCell>
        <mxCell id="WLHqO2OZkGNbgsktWJH0-1575" value="&lt;font style=&quot;font-size: 9px;&quot;&gt;زيادة 5 ثواني من وقت&lt;/font&gt;&lt;div&gt;&lt;font style=&quot;font-size: 9px;&quot;&gt;&amp;nbsp;الغوص داخل الماء&lt;/font&gt;&lt;/div&gt;" style="rounded=1;fillColor=#d5e8d4;strokeColor=#82b366;strokeWidth=3;shadow=0;html=1;arcSize=50;" vertex="1" parent="1">
          <mxGeometry x="510" y="-586.52" width="90" height="51.5" as="geometry" />
        </mxCell>
        <mxCell id="WLHqO2OZkGNbgsktWJH0-1576" value="" style="endArrow=none;html=1;rounded=0;fillColor=#f8cecc;strokeColor=#b85450;" edge="1" parent="1" target="WLHqO2OZkGNbgsktWJH0-1575" source="WLHqO2OZkGNbgsktWJH0-1550">
          <mxGeometry width="50" height="50" relative="1" as="geometry">
            <mxPoint x="277" y="-662.0524277456647" as="sourcePoint" />
            <mxPoint x="290" y="-638.0899999999999" as="targetPoint" />
            <Array as="points" />
          </mxGeometry>
        </mxCell>
        <mxCell id="WLHqO2OZkGNbgsktWJH0-1577" value="&lt;font style=&quot;font-size: 9px;&quot;&gt;%تقليل نسبة ارتفاع الضغط بنسبة 5&lt;/font&gt;" style="rounded=1;fillColor=#ffe6cc;strokeColor=#d79b00;strokeWidth=3;shadow=0;html=1;arcSize=50;" vertex="1" parent="1">
          <mxGeometry x="276" y="-590.0899999999999" width="113.5" height="56.5" as="geometry" />
        </mxCell>
        <mxCell id="WLHqO2OZkGNbgsktWJH0-1578" value="" style="endArrow=none;html=1;rounded=0;fillColor=#f8cecc;strokeColor=#b85450;curved=0;" edge="1" parent="1" target="WLHqO2OZkGNbgsktWJH0-1577" source="WLHqO2OZkGNbgsktWJH0-1550">
          <mxGeometry width="50" height="50" relative="1" as="geometry">
            <mxPoint x="270.25" y="-616.5929411764706" as="sourcePoint" />
            <mxPoint x="230" y="-571.7999999999998" as="targetPoint" />
            <Array as="points" />
          </mxGeometry>
        </mxCell>
        <mxCell id="WLHqO2OZkGNbgsktWJH0-1579" value="&lt;font style=&quot;font-size: 9px;&quot;&gt;زيادة وقت الركض 5 ثواني&lt;/font&gt;" style="rounded=1;fillColor=#f8cecc;strokeColor=#b85450;strokeWidth=3;shadow=0;html=1;arcSize=50;" vertex="1" parent="1">
          <mxGeometry x="400" y="-587.9599999999999" width="89.25" height="54.37" as="geometry" />
        </mxCell>
        <mxCell id="WLHqO2OZkGNbgsktWJH0-1580" value="" style="endArrow=none;html=1;rounded=0;fillColor=#f8cecc;strokeColor=#b85450;" edge="1" parent="1" target="WLHqO2OZkGNbgsktWJH0-1579" source="WLHqO2OZkGNbgsktWJH0-1550">
          <mxGeometry width="50" height="50" relative="1" as="geometry">
            <mxPoint x="283.5" y="-622.5899999999999" as="sourcePoint" />
            <mxPoint x="290" y="-592.0899999999999" as="targetPoint" />
            <Array as="points" />
          </mxGeometry>
        </mxCell>
        <mxCell id="WLHqO2OZkGNbgsktWJH0-1583" value="" style="endArrow=none;html=1;rounded=0;fillColor=#f8cecc;strokeColor=#b85450;" edge="1" parent="1" source="WLHqO2OZkGNbgsktWJH0-1554" target="WLHqO2OZkGNbgsktWJH0-1561">
          <mxGeometry width="50" height="50" relative="1" as="geometry">
            <mxPoint x="247" y="-1076.09" as="sourcePoint" />
            <mxPoint x="428" y="-1125.09" as="targetPoint" />
            <Array as="points" />
          </mxGeometry>
        </mxCell>
        <mxCell id="WLHqO2OZkGNbgsktWJH0-1593" value="&lt;span style=&quot;font-size: 9px;&quot;&gt;زيادة 5 ثواني نفس عند الركض&lt;/span&gt;" style="rounded=1;fillColor=#f8cecc;strokeColor=#b85450;strokeWidth=3;shadow=0;html=1;arcSize=50;" vertex="1" parent="1">
          <mxGeometry x="109.5" y="-491.2199999999999" width="120" height="56.13" as="geometry" />
        </mxCell>
        <mxCell id="WLHqO2OZkGNbgsktWJH0-1594" value="" style="endArrow=none;html=1;rounded=0;fillColor=#f8cecc;strokeColor=#b85450;" edge="1" parent="1" target="WLHqO2OZkGNbgsktWJH0-1593" source="WLHqO2OZkGNbgsktWJH0-1549">
          <mxGeometry width="50" height="50" relative="1" as="geometry">
            <mxPoint x="-280" y="-588.7099999999999" as="sourcePoint" />
            <mxPoint x="-247.00000000000045" y="-589.2099999999999" as="targetPoint" />
            <Array as="points" />
          </mxGeometry>
        </mxCell>
        <mxCell id="WLHqO2OZkGNbgsktWJH0-1595" value="&lt;span style=&quot;font-size: 9px;&quot;&gt;تقليل نسبة الضرر عند القفز من&lt;/span&gt;&lt;div&gt;&lt;span style=&quot;font-size: 9px;&quot;&gt;&amp;nbsp;ارتفاع 1 متر او اكثر&lt;/span&gt;&lt;/div&gt;" style="rounded=1;fillColor=#ffe6cc;strokeColor=#d79b00;strokeWidth=3;shadow=0;html=1;arcSize=50;" vertex="1" parent="1">
          <mxGeometry x="-40" y="-497.5899999999999" width="120" height="68.88" as="geometry" />
        </mxCell>
        <mxCell id="WLHqO2OZkGNbgsktWJH0-1596" value="" style="endArrow=none;html=1;rounded=0;fillColor=#f8cecc;strokeColor=#b85450;entryX=0.967;entryY=0.26;entryDx=0;entryDy=0;entryPerimeter=0;" edge="1" parent="1" target="WLHqO2OZkGNbgsktWJH0-1595" source="WLHqO2OZkGNbgsktWJH0-1549">
          <mxGeometry width="50" height="50" relative="1" as="geometry">
            <mxPoint x="-280" y="-596.5899999999999" as="sourcePoint" />
            <mxPoint x="-244" y="-611.4599999999999" as="targetPoint" />
            <Array as="points" />
          </mxGeometry>
        </mxCell>
        <mxCell id="WLHqO2OZkGNbgsktWJH0-1597" value="&lt;font style=&quot;font-size: 9px;&quot;&gt;زيادة نسبة استرجاع النفس 5% اسرع&lt;/font&gt;" style="rounded=1;fillColor=#d5e8d4;strokeColor=#82b366;strokeWidth=3;shadow=0;html=1;arcSize=50;" vertex="1" parent="1">
          <mxGeometry x="239.5" y="-491.5899999999999" width="130.5" height="56.5" as="geometry" />
        </mxCell>
        <mxCell id="WLHqO2OZkGNbgsktWJH0-1598" value="" style="endArrow=none;html=1;rounded=0;fillColor=#f8cecc;strokeColor=#b85450;entryX=0.5;entryY=0;entryDx=0;entryDy=0;" edge="1" parent="1" target="WLHqO2OZkGNbgsktWJH0-1597" source="WLHqO2OZkGNbgsktWJH0-1549">
          <mxGeometry width="50" height="50" relative="1" as="geometry">
            <mxPoint x="-280" y="-582.7099999999999" as="sourcePoint" />
            <mxPoint x="-274" y="-554.2099999999999" as="targetPoint" />
            <Array as="points" />
          </mxGeometry>
        </mxCell>
        <mxCell id="WLHqO2OZkGNbgsktWJH0-1599" value="&lt;font color=&quot;#ff6b9c&quot;&gt;&lt;span style=&quot;font-size: 20px;&quot;&gt;physical&lt;/span&gt;&lt;/font&gt;" style="swimlane;fontStyle=0;childLayout=stackLayout;horizontal=1;startSize=30;horizontalStack=0;resizeParent=1;resizeParentMax=0;resizeLast=0;collapsible=1;marginBottom=0;whiteSpace=wrap;html=1;" vertex="1" parent="1">
          <mxGeometry x="-410" y="-765.0899999999999" width="140" height="100" as="geometry" />
        </mxCell>
        <mxCell id="WLHqO2OZkGNbgsktWJH0-1600" value="تتم زيادة المومنتوم عن طريق الأشتراك في الجم والتمرين بصورة مكثفة" style="text;strokeColor=none;fillColor=none;align=left;verticalAlign=middle;spacingLeft=4;spacingRight=4;overflow=hidden;points=[[0,0.5],[1,0.5]];portConstraint=eastwest;rotatable=0;whiteSpace=wrap;html=1;" vertex="1" parent="WLHqO2OZkGNbgsktWJH0-1599">
          <mxGeometry y="30" width="140" height="70" as="geometry" />
        </mxCell>
        <mxCell id="WLHqO2OZkGNbgsktWJH0-1603" value="" style="curved=1;endArrow=classic;html=1;rounded=0;entryX=1;entryY=0.5;entryDx=0;entryDy=0;exitX=0.002;exitY=0.701;exitDx=0;exitDy=0;exitPerimeter=0;" edge="1" parent="1" source="1350" target="WLHqO2OZkGNbgsktWJH0-1600">
          <mxGeometry width="50" height="50" relative="1" as="geometry">
            <mxPoint x="330" y="-736.5899999999999" as="sourcePoint" />
            <mxPoint x="380" y="-786.5899999999999" as="targetPoint" />
            <Array as="points">
              <mxPoint x="-70" y="-856.5899999999999" />
              <mxPoint x="-200" y="-756.5899999999999" />
            </Array>
          </mxGeometry>
        </mxCell>
        <mxCell id="WLHqO2OZkGNbgsktWJH0-1604" value="5% زيادة سرعة الأنطلاق&lt;div&gt;عند الركض&lt;/div&gt;" style="rounded=1;fillColor=#f8cecc;strokeColor=#b85450;strokeWidth=3;shadow=0;html=1;arcSize=50;" vertex="1" parent="1">
          <mxGeometry x="-220" y="-790.0899999999999" width="120" height="60.19" as="geometry" />
        </mxCell>
        <mxCell id="WLHqO2OZkGNbgsktWJH0-1605" value="خمس ثواني زيادة في الركض" style="rounded=1;fillColor=#d5e8d4;strokeColor=#82b366;strokeWidth=3;shadow=0;html=1;arcSize=50;" vertex="1" parent="1">
          <mxGeometry x="-210" y="-710.0899999999999" width="120" height="60.19" as="geometry" />
        </mxCell>
        <mxCell id="WLHqO2OZkGNbgsktWJH0-1606" value="5% زيادة سرعة السباحة" style="rounded=1;fillColor=#ffe6cc;strokeColor=#d79b00;strokeWidth=3;shadow=0;html=1;arcSize=50;" vertex="1" parent="1">
          <mxGeometry x="-145" y="-636.5899999999999" width="120" height="60.19" as="geometry" />
        </mxCell>
        <mxCell id="WLHqO2OZkGNbgsktWJH0-1607" value="" style="endArrow=none;html=1;rounded=0;fillColor=#f8cecc;strokeColor=#b85450;" edge="1" parent="1" source="WLHqO2OZkGNbgsktWJH0-1548" target="WLHqO2OZkGNbgsktWJH0-1604">
          <mxGeometry width="50" height="50" relative="1" as="geometry">
            <mxPoint x="-16.75" y="-808.5899999999999" as="sourcePoint" />
            <mxPoint x="-111.75" y="-761.5899999999999" as="targetPoint" />
            <Array as="points" />
          </mxGeometry>
        </mxCell>
        <mxCell id="WLHqO2OZkGNbgsktWJH0-1608" value="" style="endArrow=none;html=1;rounded=0;fillColor=#f8cecc;strokeColor=#b85450;entryX=0.957;entryY=0.231;entryDx=0;entryDy=0;entryPerimeter=0;" edge="1" parent="1" source="WLHqO2OZkGNbgsktWJH0-1548" target="WLHqO2OZkGNbgsktWJH0-1605">
          <mxGeometry width="50" height="50" relative="1" as="geometry">
            <mxPoint y="-793.3999999999999" as="sourcePoint" />
            <mxPoint x="-95" y="-746.3999999999999" as="targetPoint" />
            <Array as="points" />
          </mxGeometry>
        </mxCell>
        <mxCell id="WLHqO2OZkGNbgsktWJH0-1609" value="" style="endArrow=none;html=1;rounded=0;fillColor=#f8cecc;strokeColor=#b85450;" edge="1" parent="1" source="WLHqO2OZkGNbgsktWJH0-1548" target="WLHqO2OZkGNbgsktWJH0-1606">
          <mxGeometry width="50" height="50" relative="1" as="geometry">
            <mxPoint x="185" y="-674.5899999999999" as="sourcePoint" />
            <mxPoint x="90" y="-627.5899999999999" as="targetPoint" />
            <Array as="points" />
          </mxGeometry>
        </mxCell>
        <mxCell id="WLHqO2OZkGNbgsktWJH0-1610" value="زيادة وقت الغوص 5 ثواني" style="rounded=1;fillColor=#f8cecc;strokeColor=#b85450;strokeWidth=3;shadow=0;html=1;arcSize=50;" vertex="1" parent="1">
          <mxGeometry x="-250" y="-880.8999999999999" width="120" height="60.19" as="geometry" />
        </mxCell>
        <mxCell id="WLHqO2OZkGNbgsktWJH0-1611" value="زيادة سرعة الركض 5 ثواني" style="rounded=1;fillColor=#d5e8d4;strokeColor=#82b366;strokeWidth=3;shadow=0;html=1;arcSize=50;" vertex="1" parent="1">
          <mxGeometry x="-250" y="-960.9899999999999" width="120" height="60.19" as="geometry" />
        </mxCell>
        <mxCell id="WLHqO2OZkGNbgsktWJH0-1612" value="تقليل 10% من نسبة الضرر&amp;nbsp;&lt;div&gt;عند القفز بشكل خاطئ&lt;/div&gt;" style="rounded=1;fillColor=#ffe6cc;strokeColor=#d79b00;strokeWidth=3;shadow=0;html=1;arcSize=50;" vertex="1" parent="1">
          <mxGeometry x="-250" y="-1036.51" width="120" height="60.19" as="geometry" />
        </mxCell>
        <mxCell id="WLHqO2OZkGNbgsktWJH0-1613" value="" style="endArrow=none;html=1;rounded=0;fillColor=#f8cecc;strokeColor=#b85450;" edge="1" parent="1" source="WLHqO2OZkGNbgsktWJH0-1547" target="WLHqO2OZkGNbgsktWJH0-1612">
          <mxGeometry width="50" height="50" relative="1" as="geometry">
            <mxPoint x="-85" y="-1004.3199999999999" as="sourcePoint" />
            <mxPoint x="-130" y="-976.3199999999999" as="targetPoint" />
            <Array as="points" />
          </mxGeometry>
        </mxCell>
        <mxCell id="WLHqO2OZkGNbgsktWJH0-1614" value="" style="endArrow=none;html=1;rounded=0;fillColor=#f8cecc;strokeColor=#b85450;" edge="1" parent="1" source="WLHqO2OZkGNbgsktWJH0-1547" target="WLHqO2OZkGNbgsktWJH0-1611">
          <mxGeometry width="50" height="50" relative="1" as="geometry">
            <mxPoint x="-100" y="-938.8" as="sourcePoint" />
            <mxPoint x="-145" y="-910.8" as="targetPoint" />
            <Array as="points" />
          </mxGeometry>
        </mxCell>
        <mxCell id="WLHqO2OZkGNbgsktWJH0-1615" value="" style="endArrow=none;html=1;rounded=0;fillColor=#f8cecc;strokeColor=#b85450;entryX=0.994;entryY=0.373;entryDx=0;entryDy=0;entryPerimeter=0;" edge="1" parent="1" source="WLHqO2OZkGNbgsktWJH0-1547" target="WLHqO2OZkGNbgsktWJH0-1610">
          <mxGeometry width="50" height="50" relative="1" as="geometry">
            <mxPoint x="-85" y="-890.8" as="sourcePoint" />
            <mxPoint x="-130" y="-862.8" as="targetPoint" />
            <Array as="points" />
          </mxGeometry>
        </mxCell>
        <mxCell id="WLHqO2OZkGNbgsktWJH0-1618" value="&lt;font style=&quot;font-size: 9px;&quot;&gt;تقليل نسبة الضرر عند القفز من&lt;/font&gt;&lt;div&gt;&lt;font style=&quot;font-size: 9px;&quot;&gt;&amp;nbsp;ارتفاع 1 متر او اكثر&lt;/font&gt;&lt;/div&gt;" style="rounded=1;fillColor=#f8cecc;strokeColor=#b85450;strokeWidth=3;shadow=0;html=1;arcSize=50;" vertex="1" parent="1">
          <mxGeometry x="-240" y="-1094.84" width="106.5" height="49.75" as="geometry" />
        </mxCell>
        <mxCell id="WLHqO2OZkGNbgsktWJH0-1619" value="&lt;font style=&quot;font-size: 9px;&quot;&gt;زيادة 5 ثواني نفس عند الركض&lt;/font&gt;" style="rounded=1;fillColor=#d5e8d4;strokeColor=#82b366;strokeWidth=3;shadow=0;html=1;arcSize=50;" vertex="1" parent="1">
          <mxGeometry x="-105.37" y="-1145.09" width="100.75" height="46.5" as="geometry" />
        </mxCell>
        <mxCell id="WLHqO2OZkGNbgsktWJH0-1620" value="&lt;font style=&quot;font-size: 9px;&quot;&gt;زيادة نسبة استرجاع النفس 5% اسرع&lt;/font&gt;" style="rounded=1;fillColor=#ffe6cc;strokeColor=#d79b00;strokeWidth=3;shadow=0;html=1;arcSize=50;" vertex="1" parent="1">
          <mxGeometry x="-240" y="-1161.59" width="120.5" height="51.5" as="geometry" />
        </mxCell>
        <mxCell id="WLHqO2OZkGNbgsktWJH0-1621" value="" style="endArrow=none;html=1;rounded=0;fillColor=#f8cecc;strokeColor=#b85450;" edge="1" parent="1" source="WLHqO2OZkGNbgsktWJH0-1545" target="WLHqO2OZkGNbgsktWJH0-1619">
          <mxGeometry width="50" height="50" relative="1" as="geometry">
            <mxPoint x="-52" y="-1040.09" as="sourcePoint" />
            <mxPoint x="-100" y="-1075.09" as="targetPoint" />
            <Array as="points" />
          </mxGeometry>
        </mxCell>
        <mxCell id="WLHqO2OZkGNbgsktWJH0-1622" value="" style="endArrow=none;html=1;rounded=0;fillColor=#f8cecc;strokeColor=#b85450;" edge="1" parent="1" source="WLHqO2OZkGNbgsktWJH0-1545" target="WLHqO2OZkGNbgsktWJH0-1620">
          <mxGeometry width="50" height="50" relative="1" as="geometry">
            <mxPoint x="-105.37" y="-1041.09" as="sourcePoint" />
            <mxPoint x="-105.37" y="-1100.09" as="targetPoint" />
            <Array as="points" />
          </mxGeometry>
        </mxCell>
        <mxCell id="WLHqO2OZkGNbgsktWJH0-1623" value="" style="endArrow=none;html=1;rounded=0;fillColor=#f8cecc;strokeColor=#b85450;" edge="1" parent="1" source="WLHqO2OZkGNbgsktWJH0-1545" target="WLHqO2OZkGNbgsktWJH0-1618">
          <mxGeometry width="50" height="50" relative="1" as="geometry">
            <mxPoint x="-79" y="-1014.0899999999999" as="sourcePoint" />
            <mxPoint x="-160" y="-1085.09" as="targetPoint" />
            <Array as="points" />
          </mxGeometry>
        </mxCell>
        <mxCell id="WLHqO2OZkGNbgsktWJH0-1625" value="&lt;font style=&quot;font-size: 8px;&quot;&gt;&amp;nbsp;زيادة 5 ثواني في الماء عند الغوص&lt;/font&gt;" style="rounded=1;fillColor=#ffe6cc;strokeColor=#d79b00;strokeWidth=3;shadow=0;html=1;arcSize=50;" vertex="1" parent="1">
          <mxGeometry x="-136.75" y="-1224.59" width="103.5" height="49.5" as="geometry" />
        </mxCell>
        <mxCell id="WLHqO2OZkGNbgsktWJH0-1626" value="&lt;span style=&quot;font-size: 9px;&quot;&gt;زيادة 5 ثواني نفس عند الركض&lt;/span&gt;" style="rounded=1;fillColor=#f8cecc;strokeColor=#b85450;strokeWidth=3;shadow=0;html=1;arcSize=50;" vertex="1" parent="1">
          <mxGeometry x="-50" y="-1367.7199999999998" width="120" height="51.13" as="geometry" />
        </mxCell>
        <mxCell id="WLHqO2OZkGNbgsktWJH0-1627" value="5% زيادة سرعة السباحة" style="rounded=1;fillColor=#d5e8d4;strokeColor=#82b366;strokeWidth=3;shadow=0;html=1;arcSize=50;" vertex="1" parent="1">
          <mxGeometry x="-160" y="-1305.2799999999997" width="120" height="60.19" as="geometry" />
        </mxCell>
        <mxCell id="WLHqO2OZkGNbgsktWJH0-1629" value="" style="endArrow=none;html=1;rounded=0;fillColor=#f8cecc;strokeColor=#b85450;exitX=0.5;exitY=0;exitDx=0;exitDy=0;" edge="1" parent="1" source="WLHqO2OZkGNbgsktWJH0-1551" target="WLHqO2OZkGNbgsktWJH0-1626">
          <mxGeometry width="50" height="50" relative="1" as="geometry">
            <mxPoint x="30" y="-1257.59" as="sourcePoint" />
            <mxPoint x="30" y="-1316.59" as="targetPoint" />
            <Array as="points" />
          </mxGeometry>
        </mxCell>
        <mxCell id="WLHqO2OZkGNbgsktWJH0-1630" value="" style="endArrow=none;html=1;rounded=0;fillColor=#f8cecc;strokeColor=#b85450;" edge="1" parent="1" source="WLHqO2OZkGNbgsktWJH0-1551" target="WLHqO2OZkGNbgsktWJH0-1627">
          <mxGeometry width="50" height="50" relative="1" as="geometry">
            <mxPoint x="-47.5" y="-1205.09" as="sourcePoint" />
            <mxPoint x="-62.5" y="-1276.09" as="targetPoint" />
            <Array as="points" />
          </mxGeometry>
        </mxCell>
        <mxCell id="WLHqO2OZkGNbgsktWJH0-1631" value="" style="endArrow=none;html=1;rounded=0;fillColor=#f8cecc;strokeColor=#b85450;" edge="1" parent="1" source="WLHqO2OZkGNbgsktWJH0-1551" target="WLHqO2OZkGNbgsktWJH0-1625">
          <mxGeometry width="50" height="50" relative="1" as="geometry">
            <mxPoint x="8.249999999999773" y="-1219.6899999999998" as="sourcePoint" />
            <mxPoint x="-40" y="-1205.094375" as="targetPoint" />
            <Array as="points" />
          </mxGeometry>
        </mxCell>
        <mxCell id="WLHqO2OZkGNbgsktWJH0-1632" value="&lt;span style=&quot;font-size: 9px;&quot;&gt;زيادة 5 ثواني نفس عند الركض&lt;/span&gt;" style="rounded=1;fillColor=#ffe6cc;strokeColor=#d79b00;strokeWidth=3;shadow=0;html=1;arcSize=50;" vertex="1" parent="1">
          <mxGeometry x="70" y="-1336.59" width="120" height="51.13" as="geometry" />
        </mxCell>
        <mxCell id="WLHqO2OZkGNbgsktWJH0-1633" value="" style="endArrow=none;html=1;rounded=0;fillColor=#f8cecc;strokeColor=#b85450;" edge="1" parent="1" source="WLHqO2OZkGNbgsktWJH0-1544" target="WLHqO2OZkGNbgsktWJH0-1632">
          <mxGeometry width="50" height="50" relative="1" as="geometry">
            <mxPoint x="40" y="-1234.59" as="sourcePoint" />
            <mxPoint x="25" y="-1306.59" as="targetPoint" />
            <Array as="points" />
          </mxGeometry>
        </mxCell>
        <mxCell id="WLHqO2OZkGNbgsktWJH0-1634" value="5% زيادة سرعة الأنطلاق&lt;div&gt;عند الركض&lt;/div&gt;" style="rounded=1;fillColor=#f8cecc;strokeColor=#b85450;strokeWidth=3;shadow=0;html=1;arcSize=50;" vertex="1" parent="1">
          <mxGeometry x="190" y="-1316.59" width="120" height="60.19" as="geometry" />
        </mxCell>
        <mxCell id="WLHqO2OZkGNbgsktWJH0-1635" value="" style="endArrow=none;html=1;rounded=0;fillColor=#f8cecc;strokeColor=#b85450;" edge="1" parent="1" source="WLHqO2OZkGNbgsktWJH0-1544" target="WLHqO2OZkGNbgsktWJH0-1634">
          <mxGeometry width="50" height="50" relative="1" as="geometry">
            <mxPoint x="172" y="-1224.59" as="sourcePoint" />
            <mxPoint x="155" y="-1306.59" as="targetPoint" />
            <Array as="points" />
          </mxGeometry>
        </mxCell>
        <mxCell id="WLHqO2OZkGNbgsktWJH0-1636" value="5% زيادة سرعة&amp;nbsp;&lt;div&gt;tackle game&lt;/div&gt;" style="rounded=1;fillColor=#d5e8d4;strokeColor=#82b366;strokeWidth=3;shadow=0;html=1;arcSize=50;" vertex="1" parent="1">
          <mxGeometry x="200" y="-1235.2799999999997" width="120" height="60.19" as="geometry" />
        </mxCell>
        <mxCell id="WLHqO2OZkGNbgsktWJH0-1637" value="" style="endArrow=none;html=1;rounded=0;fillColor=#f8cecc;strokeColor=#b85450;" edge="1" parent="1" source="WLHqO2OZkGNbgsktWJH0-1544" target="WLHqO2OZkGNbgsktWJH0-1636">
          <mxGeometry width="50" height="50" relative="1" as="geometry">
            <mxPoint x="190" y="-1223.59" as="sourcePoint" />
            <mxPoint x="237" y="-1266.59" as="targetPoint" />
            <Array as="points" />
          </mxGeometry>
        </mxCell>
        <mxCell id="WLHqO2OZkGNbgsktWJH0-1638" value="50% تقليل نسبة ارتفاع الضغط" style="rounded=1;fillColor=#d5e8d4;strokeColor=#82b366;strokeWidth=3;shadow=0;html=1;arcSize=50;" vertex="1" parent="1">
          <mxGeometry x="379.5" y="-1336.59" width="150.5" height="70.19" as="geometry" />
        </mxCell>
        <mxCell id="WLHqO2OZkGNbgsktWJH0-1639" value="50% نسبة الأصابة بالعرج عندما&amp;nbsp;&lt;div&gt;تصدمك مركبة&lt;/div&gt;" style="rounded=1;fillColor=#f8cecc;strokeColor=#b85450;strokeWidth=3;shadow=0;html=1;arcSize=50;" vertex="1" parent="1">
          <mxGeometry x="474.5" y="-1246.59" width="145.5" height="70.19" as="geometry" />
        </mxCell>
        <mxCell id="WLHqO2OZkGNbgsktWJH0-1640" value="&lt;font style=&quot;font-size: 11px;&quot;&gt;تقليل 50% من حدوث نزيف عند الشخص&lt;/font&gt;" style="rounded=1;fillColor=#ffe6cc;strokeColor=#d79b00;strokeWidth=3;shadow=0;html=1;arcSize=50;" vertex="1" parent="1">
          <mxGeometry x="489.5" y="-1156.59" width="160.5" height="80" as="geometry" />
        </mxCell>
        <mxCell id="WLHqO2OZkGNbgsktWJH0-1641" value="" style="endArrow=none;html=1;rounded=0;fillColor=#f8cecc;strokeColor=#b85450;" edge="1" parent="1" source="1373" target="WLHqO2OZkGNbgsktWJH0-1638">
          <mxGeometry width="50" height="50" relative="1" as="geometry">
            <mxPoint x="169.5" y="-1191.59" as="sourcePoint" />
            <mxPoint x="200.5" y="-1216.59" as="targetPoint" />
            <Array as="points" />
          </mxGeometry>
        </mxCell>
        <mxCell id="WLHqO2OZkGNbgsktWJH0-1642" value="" style="endArrow=none;html=1;rounded=0;fillColor=#f8cecc;strokeColor=#b85450;" edge="1" parent="1" source="1373" target="WLHqO2OZkGNbgsktWJH0-1639">
          <mxGeometry width="50" height="50" relative="1" as="geometry">
            <mxPoint x="414.5" y="-1184.59" as="sourcePoint" />
            <mxPoint x="439.5" y="-1256.59" as="targetPoint" />
            <Array as="points" />
          </mxGeometry>
        </mxCell>
        <mxCell id="WLHqO2OZkGNbgsktWJH0-1643" value="" style="endArrow=none;html=1;rounded=0;fillColor=#f8cecc;strokeColor=#b85450;" edge="1" parent="1" source="1373" target="WLHqO2OZkGNbgsktWJH0-1640">
          <mxGeometry width="50" height="50" relative="1" as="geometry">
            <mxPoint x="424.5" y="-1172.59" as="sourcePoint" />
            <mxPoint x="484.5" y="-1184.59" as="targetPoint" />
            <Array as="points" />
          </mxGeometry>
        </mxCell>
        <mxCell id="WLHqO2OZkGNbgsktWJH0-1644" value="charisma" style="ellipse;whiteSpace=wrap;html=1;shadow=0;fontFamily=Helvetica;fontSize=20;fontColor=#ffffff;align=center;strokeWidth=3;fillColor=#008a00;strokeColor=#005700;" vertex="1" parent="1">
          <mxGeometry x="1769.5" y="-902.8" width="120" height="120" as="geometry" />
        </mxCell>
        <mxCell id="WLHqO2OZkGNbgsktWJH0-1645" value="100%" style="rounded=1;fillColor=#dae8fc;strokeColor=#6c8ebf;strokeWidth=3;shadow=0;html=1;arcSize=50;" vertex="1" parent="1">
          <mxGeometry x="1820" y="-1088.5" width="30" height="30" as="geometry" />
        </mxCell>
        <mxCell id="WLHqO2OZkGNbgsktWJH0-1646" value="" style="edgeStyle=none;endArrow=none;strokeWidth=3;strokeColor=#005700;html=1;fillColor=#008a00;" edge="1" parent="1" source="WLHqO2OZkGNbgsktWJH0-1644" target="WLHqO2OZkGNbgsktWJH0-1662">
          <mxGeometry x="-221.5" y="56.5" width="100" height="100" as="geometry">
            <mxPoint x="1024.5" y="-1017.8" as="sourcePoint" />
            <mxPoint x="1973.125" y="-782.8" as="targetPoint" />
          </mxGeometry>
        </mxCell>
        <mxCell id="WLHqO2OZkGNbgsktWJH0-1647" value="" style="edgeStyle=none;endArrow=none;strokeWidth=3;strokeColor=#005700;html=1;fillColor=#008a00;" edge="1" parent="1" source="WLHqO2OZkGNbgsktWJH0-1644" target="WLHqO2OZkGNbgsktWJH0-1659">
          <mxGeometry x="-221.5" y="56.5" width="100" height="100" as="geometry">
            <mxPoint x="1024.5" y="-1017.8" as="sourcePoint" />
            <mxPoint x="1754.1923076923076" y="-732.8" as="targetPoint" />
          </mxGeometry>
        </mxCell>
        <mxCell id="WLHqO2OZkGNbgsktWJH0-1649" value="" style="edgeStyle=none;endArrow=none;strokeWidth=3;strokeColor=#005700;html=1;fillColor=#008a00;" edge="1" parent="1" source="WLHqO2OZkGNbgsktWJH0-1644" target="WLHqO2OZkGNbgsktWJH0-1657">
          <mxGeometry x="-221.5" y="56.5" width="100" height="100" as="geometry">
            <mxPoint x="1720.0999999999995" y="-758.47" as="sourcePoint" />
            <mxPoint x="1656" y="-772.51" as="targetPoint" />
          </mxGeometry>
        </mxCell>
        <mxCell id="WLHqO2OZkGNbgsktWJH0-1652" value="" style="edgeStyle=none;endArrow=none;strokeWidth=3;strokeColor=#005700;html=1;fillColor=#008a00;" edge="1" parent="1" source="WLHqO2OZkGNbgsktWJH0-1644" target="WLHqO2OZkGNbgsktWJH0-1645">
          <mxGeometry x="-221.5" y="56.5" width="100" height="100" as="geometry">
            <mxPoint x="1024.5" y="-1017.8" as="sourcePoint" />
            <mxPoint x="1124.5" y="-1117.8" as="targetPoint" />
          </mxGeometry>
        </mxCell>
        <mxCell id="WLHqO2OZkGNbgsktWJH0-1655" value="" style="edgeStyle=none;endArrow=none;strokeWidth=3;strokeColor=#005700;html=1;fillColor=#008a00;" edge="1" parent="1" source="WLHqO2OZkGNbgsktWJH0-1644" target="WLHqO2OZkGNbgsktWJH0-1661">
          <mxGeometry x="-221.5" y="56.5" width="100" height="100" as="geometry">
            <mxPoint x="1798" y="-894.3" as="sourcePoint" />
            <mxPoint x="1766" y="-944.3" as="targetPoint" />
          </mxGeometry>
        </mxCell>
        <mxCell id="WLHqO2OZkGNbgsktWJH0-1657" value="60%" style="rounded=1;fillColor=#dae8fc;strokeColor=#6c8ebf;strokeWidth=3;shadow=0;html=1;arcSize=50;" vertex="1" parent="1">
          <mxGeometry x="1635" y="-723.04" width="30" height="30" as="geometry" />
        </mxCell>
        <mxCell id="WLHqO2OZkGNbgsktWJH0-1659" value="40%" style="rounded=1;fillColor=#dae8fc;strokeColor=#6c8ebf;strokeWidth=3;shadow=0;html=1;arcSize=50;" vertex="1" parent="1">
          <mxGeometry x="2009.5" y="-718.31" width="30" height="30" as="geometry" />
        </mxCell>
        <mxCell id="WLHqO2OZkGNbgsktWJH0-1661" value="80%" style="rounded=1;fillColor=#dae8fc;strokeColor=#6c8ebf;strokeWidth=3;shadow=0;html=1;arcSize=50;" vertex="1" parent="1">
          <mxGeometry x="1629" y="-961.81" width="30" height="30" as="geometry" />
        </mxCell>
        <mxCell id="WLHqO2OZkGNbgsktWJH0-1662" value="20%" style="rounded=1;fillColor=#dae8fc;strokeColor=#6c8ebf;strokeWidth=3;shadow=0;html=1;arcSize=50;" vertex="1" parent="1">
          <mxGeometry x="2000" y="-959.62" width="30" height="30" as="geometry" />
        </mxCell>
        <mxCell id="WLHqO2OZkGNbgsktWJH0-1669" value="" style="endArrow=none;html=1;rounded=0;fillColor=#f8cecc;strokeColor=#b85450;" edge="1" parent="1" source="WLHqO2OZkGNbgsktWJH0-1664">
          <mxGeometry width="50" height="50" relative="1" as="geometry">
            <mxPoint x="1616" y="94.50999999999999" as="sourcePoint" />
            <mxPoint x="1646.5" y="97.46951724137944" as="targetPoint" />
            <Array as="points" />
          </mxGeometry>
        </mxCell>
        <mxCell id="WLHqO2OZkGNbgsktWJH0-1670" value="&lt;div&gt;&lt;span style=&quot;font-size: 9px; background-color: initial;&quot;&gt;5% زيادة سعر البيع في المستودع&lt;/span&gt;&lt;br&gt;&lt;/div&gt;&lt;div&gt;&lt;font size=&quot;1&quot;&gt;a5-economy&lt;/font&gt;&lt;/div&gt;" style="rounded=1;fillColor=#f8cecc;strokeColor=#b85450;strokeWidth=3;shadow=0;html=1;arcSize=50;" vertex="1" parent="1">
          <mxGeometry x="2130" y="-1000.28" width="120" height="51.13" as="geometry" />
        </mxCell>
        <mxCell id="WLHqO2OZkGNbgsktWJH0-1671" value="" style="endArrow=none;html=1;rounded=0;fillColor=#f8cecc;strokeColor=#b85450;" edge="1" parent="1" source="WLHqO2OZkGNbgsktWJH0-1662" target="WLHqO2OZkGNbgsktWJH0-1670">
          <mxGeometry width="50" height="50" relative="1" as="geometry">
            <mxPoint x="2130.5" y="-1043.81" as="sourcePoint" />
            <mxPoint x="2177.4999999999995" y="-1054.31" as="targetPoint" />
            <Array as="points" />
          </mxGeometry>
        </mxCell>
        <mxCell id="WLHqO2OZkGNbgsktWJH0-1672" value="&lt;font style=&quot;font-size: 9px;&quot;&gt;وصول إشعار عبر البريد الالكتروني&lt;/font&gt;&lt;div&gt;&lt;span style=&quot;font-size: 9px; background-color: initial;&quot;&gt;عند ظهور بائع غير قانوني شائع&lt;/span&gt;&lt;br&gt;&lt;/div&gt;&lt;div&gt;&lt;span style=&quot;font-size: 9px; background-color: initial;&quot;&gt;phone &amp;amp; a5-vendors&lt;/span&gt;&lt;/div&gt;" style="rounded=1;fillColor=#ffe6cc;strokeColor=#d79b00;strokeWidth=3;shadow=0;html=1;arcSize=50;" vertex="1" parent="1">
          <mxGeometry x="2030" y="-1091.12" width="141.5" height="51.5" as="geometry" />
        </mxCell>
        <mxCell id="WLHqO2OZkGNbgsktWJH0-1673" value="" style="endArrow=none;html=1;rounded=0;fillColor=#f8cecc;strokeColor=#b85450;" edge="1" parent="1" source="WLHqO2OZkGNbgsktWJH0-1662" target="WLHqO2OZkGNbgsktWJH0-1672">
          <mxGeometry width="50" height="50" relative="1" as="geometry">
            <mxPoint x="2150.5" y="-1076.56" as="sourcePoint" />
            <mxPoint x="2180.5" y="-1076.56" as="targetPoint" />
            <Array as="points" />
          </mxGeometry>
        </mxCell>
        <mxCell id="WLHqO2OZkGNbgsktWJH0-1674" value="&lt;font size=&quot;1&quot;&gt;تخفيض السعر عند الشراء من جميع&amp;nbsp;&lt;/font&gt;&lt;div&gt;&lt;font size=&quot;1&quot;&gt;&amp;nbsp;البائعين بنسبة 5% من السعر&lt;/font&gt;&lt;/div&gt;&lt;div&gt;&lt;font size=&quot;1&quot;&gt;a5-vendors&lt;/font&gt;&lt;/div&gt;" style="rounded=1;fillColor=#d5e8d4;strokeColor=#82b366;strokeWidth=3;shadow=0;html=1;arcSize=50;" vertex="1" parent="1">
          <mxGeometry x="2120" y="-888.96" width="130" height="46.5" as="geometry" />
        </mxCell>
        <mxCell id="WLHqO2OZkGNbgsktWJH0-1675" value="" style="endArrow=none;html=1;rounded=0;fillColor=#f8cecc;strokeColor=#b85450;entryX=0.5;entryY=0;entryDx=0;entryDy=0;" edge="1" parent="1" source="WLHqO2OZkGNbgsktWJH0-1662" target="WLHqO2OZkGNbgsktWJH0-1674">
          <mxGeometry width="50" height="50" relative="1" as="geometry">
            <mxPoint x="2120.5" y="-1019.31" as="sourcePoint" />
            <mxPoint x="2150.5" y="-1019.31" as="targetPoint" />
            <Array as="points" />
          </mxGeometry>
        </mxCell>
        <mxCell id="WLHqO2OZkGNbgsktWJH0-1683" value="&lt;span style=&quot;font-size: 9px;&quot;&gt;زيادة المومنتم 5% عند البدء في اي&amp;nbsp;&lt;/span&gt;&lt;div&gt;&lt;span style=&quot;font-size: 9px;&quot;&gt;وظيفة&lt;/span&gt;&lt;/div&gt;" style="rounded=1;fillColor=#f8cecc;strokeColor=#b85450;strokeWidth=3;shadow=0;html=1;arcSize=50;" vertex="1" parent="1">
          <mxGeometry x="2051.5" y="-647.98" width="120" height="56.13" as="geometry" />
        </mxCell>
        <mxCell id="WLHqO2OZkGNbgsktWJH0-1684" value="" style="endArrow=none;html=1;rounded=0;fillColor=#f8cecc;strokeColor=#b85450;" edge="1" parent="1" source="WLHqO2OZkGNbgsktWJH0-1659" target="WLHqO2OZkGNbgsktWJH0-1683">
          <mxGeometry width="50" height="50" relative="1" as="geometry">
            <mxPoint x="1380" y="-550.8" as="sourcePoint" />
            <mxPoint x="1412.9999999999995" y="-551.3" as="targetPoint" />
            <Array as="points" />
          </mxGeometry>
        </mxCell>
        <mxCell id="WLHqO2OZkGNbgsktWJH0-1685" value="&lt;font size=&quot;1&quot;&gt;تقليل 10% من وقت السجن&lt;/font&gt;" style="rounded=1;fillColor=#ffe6cc;strokeColor=#d79b00;strokeWidth=3;shadow=0;html=1;arcSize=50;" vertex="1" parent="1">
          <mxGeometry x="1930" y="-643.5799999999999" width="109.5" height="51.39" as="geometry" />
        </mxCell>
        <mxCell id="WLHqO2OZkGNbgsktWJH0-1686" value="" style="endArrow=none;html=1;rounded=0;fillColor=#f8cecc;strokeColor=#b85450;" edge="1" parent="1" source="WLHqO2OZkGNbgsktWJH0-1659" target="WLHqO2OZkGNbgsktWJH0-1685">
          <mxGeometry width="50" height="50" relative="1" as="geometry">
            <mxPoint x="1380" y="-558.6800000000001" as="sourcePoint" />
            <mxPoint x="1416" y="-573.55" as="targetPoint" />
            <Array as="points" />
          </mxGeometry>
        </mxCell>
        <mxCell id="WLHqO2OZkGNbgsktWJH0-1687" value="&lt;font style=&quot;font-size: 9px;&quot;&gt;وصول إشعار عبر البريد الالكتروني&lt;/font&gt;&lt;div&gt;&lt;span style=&quot;font-size: 9px; background-color: initial;&quot;&gt;عند ظهور بائع غير قانوني نادر&lt;/span&gt;&lt;br&gt;&lt;/div&gt;&lt;div&gt;&lt;span style=&quot;font-size: 9px; background-color: initial;&quot;&gt;phone &amp;amp; a5-vendors&lt;/span&gt;&lt;/div&gt;" style="rounded=1;fillColor=#d5e8d4;strokeColor=#82b366;strokeWidth=3;shadow=0;html=1;arcSize=50;" vertex="1" parent="1">
          <mxGeometry x="2084.5" y="-758.6500000000001" width="130.5" height="56.5" as="geometry" />
        </mxCell>
        <mxCell id="WLHqO2OZkGNbgsktWJH0-1688" value="" style="endArrow=none;html=1;rounded=0;fillColor=#f8cecc;strokeColor=#b85450;" edge="1" parent="1" source="WLHqO2OZkGNbgsktWJH0-1659" target="WLHqO2OZkGNbgsktWJH0-1687">
          <mxGeometry width="50" height="50" relative="1" as="geometry">
            <mxPoint x="1380" y="-544.8" as="sourcePoint" />
            <mxPoint x="1386" y="-516.3" as="targetPoint" />
            <Array as="points" />
          </mxGeometry>
        </mxCell>
        <mxCell id="WLHqO2OZkGNbgsktWJH0-1689" value="&lt;span style=&quot;font-size: 20px;&quot;&gt;&lt;font color=&quot;#f19c99&quot;&gt;charisma&lt;/font&gt;&lt;/span&gt;" style="swimlane;fontStyle=0;childLayout=stackLayout;horizontal=1;startSize=30;horizontalStack=0;resizeParent=1;resizeParentMax=0;resizeLast=0;collapsible=1;marginBottom=0;whiteSpace=wrap;html=1;" vertex="1" parent="1">
          <mxGeometry x="2300" y="-688.6800000000001" width="140" height="100" as="geometry" />
        </mxCell>
        <mxCell id="WLHqO2OZkGNbgsktWJH0-1690" value="تتم زيادة الكارزما عندما يقوم الشخص بالتكلم مع البوتات والأشخاص عن طريق المايك" style="text;strokeColor=none;fillColor=none;align=left;verticalAlign=middle;spacingLeft=4;spacingRight=4;overflow=hidden;points=[[0,0.5],[1,0.5]];portConstraint=eastwest;rotatable=0;whiteSpace=wrap;html=1;" vertex="1" parent="WLHqO2OZkGNbgsktWJH0-1689">
          <mxGeometry y="30" width="140" height="70" as="geometry" />
        </mxCell>
        <mxCell id="WLHqO2OZkGNbgsktWJH0-1691" value="" style="curved=1;endArrow=classic;html=1;rounded=0;" edge="1" parent="1" target="WLHqO2OZkGNbgsktWJH0-1689">
          <mxGeometry width="50" height="50" relative="1" as="geometry">
            <mxPoint x="1880" y="-809.81" as="sourcePoint" />
            <mxPoint x="2040" y="-748.6800000000001" as="targetPoint" />
            <Array as="points">
              <mxPoint x="1960" y="-779.81" />
              <mxPoint x="1970" y="-739.81" />
              <mxPoint x="2120" y="-679.81" />
              <mxPoint x="2150" y="-669.81" />
            </Array>
          </mxGeometry>
        </mxCell>
        <mxCell id="WLHqO2OZkGNbgsktWJH0-1698" value="&lt;font size=&quot;1&quot;&gt;تخفيض السعر عند الشراء من جميع&amp;nbsp;&lt;/font&gt;&lt;div&gt;&lt;font size=&quot;1&quot;&gt;&amp;nbsp;البائعين بنسبة 5% من السعر&lt;/font&gt;&lt;/div&gt;&lt;div&gt;&lt;font size=&quot;1&quot;&gt;a5-vendors&lt;/font&gt;&lt;/div&gt;" style="rounded=1;fillColor=#f8cecc;strokeColor=#b85450;strokeWidth=3;shadow=0;html=1;arcSize=50;" vertex="1" parent="1">
          <mxGeometry x="1500" y="-649.81" width="125" height="62.02" as="geometry" />
        </mxCell>
        <mxCell id="WLHqO2OZkGNbgsktWJH0-1699" value="&lt;font size=&quot;1&quot;&gt;تقليل 10% من قيمة المخالفة&lt;/font&gt;&lt;div&gt;&lt;font size=&quot;1&quot;&gt;المقطوعة من قبل الشرطي&lt;/font&gt;&lt;/div&gt;" style="rounded=1;fillColor=#d5e8d4;strokeColor=#82b366;strokeWidth=3;shadow=0;html=1;arcSize=50;" vertex="1" parent="1">
          <mxGeometry x="1474" y="-732.52" width="120" height="60.19" as="geometry" />
        </mxCell>
        <mxCell id="WLHqO2OZkGNbgsktWJH0-1700" value="&lt;div&gt;&lt;span style=&quot;font-size: 9px; background-color: initial;&quot;&gt;5% زيادة سعر البيع في المستودع&lt;/span&gt;&lt;br&gt;&lt;/div&gt;&lt;div&gt;&lt;font size=&quot;1&quot;&gt;a5-economy&lt;/font&gt;&lt;/div&gt;" style="rounded=1;fillColor=#ffe6cc;strokeColor=#d79b00;strokeWidth=3;shadow=0;html=1;arcSize=50;" vertex="1" parent="1">
          <mxGeometry x="1470" y="-818.84" width="120" height="60.19" as="geometry" />
        </mxCell>
        <mxCell id="WLHqO2OZkGNbgsktWJH0-1701" value="" style="endArrow=none;html=1;rounded=0;fillColor=#f8cecc;strokeColor=#b85450;" edge="1" parent="1" source="WLHqO2OZkGNbgsktWJH0-1657" target="WLHqO2OZkGNbgsktWJH0-1700">
          <mxGeometry width="50" height="50" relative="1" as="geometry">
            <mxPoint x="1610" y="-965.52" as="sourcePoint" />
            <mxPoint x="1565" y="-937.52" as="targetPoint" />
            <Array as="points" />
          </mxGeometry>
        </mxCell>
        <mxCell id="WLHqO2OZkGNbgsktWJH0-1702" value="" style="endArrow=none;html=1;rounded=0;fillColor=#f8cecc;strokeColor=#b85450;" edge="1" parent="1" source="WLHqO2OZkGNbgsktWJH0-1657" target="WLHqO2OZkGNbgsktWJH0-1699">
          <mxGeometry width="50" height="50" relative="1" as="geometry">
            <mxPoint x="1595" y="-900" as="sourcePoint" />
            <mxPoint x="1550" y="-872" as="targetPoint" />
            <Array as="points" />
          </mxGeometry>
        </mxCell>
        <mxCell id="WLHqO2OZkGNbgsktWJH0-1703" value="" style="endArrow=none;html=1;rounded=0;fillColor=#f8cecc;strokeColor=#b85450;entryX=0.994;entryY=0.373;entryDx=0;entryDy=0;entryPerimeter=0;" edge="1" parent="1" source="WLHqO2OZkGNbgsktWJH0-1657" target="WLHqO2OZkGNbgsktWJH0-1698">
          <mxGeometry width="50" height="50" relative="1" as="geometry">
            <mxPoint x="1610" y="-852" as="sourcePoint" />
            <mxPoint x="1565" y="-824" as="targetPoint" />
            <Array as="points" />
          </mxGeometry>
        </mxCell>
        <mxCell id="WLHqO2OZkGNbgsktWJH0-1710" value="&lt;span style=&quot;font-size: 9px;&quot;&gt;زيادة المومنتم 5% عند البدء في اي&amp;nbsp;&lt;/span&gt;&lt;div&gt;&lt;span style=&quot;font-size: 9px;&quot;&gt;وظيفة&lt;/span&gt;&lt;/div&gt;" style="rounded=1;fillColor=#ffe6cc;strokeColor=#d79b00;strokeWidth=3;shadow=0;html=1;arcSize=50;" vertex="1" parent="1">
          <mxGeometry x="1470" y="-1019.81" width="124" height="51" as="geometry" />
        </mxCell>
        <mxCell id="WLHqO2OZkGNbgsktWJH0-1711" value="&lt;font size=&quot;1&quot;&gt;تخفيض السعر عند الشراء من جميع&amp;nbsp;&lt;/font&gt;&lt;div&gt;&lt;font size=&quot;1&quot;&gt;&amp;nbsp;البائعين بنسبة 5% من السعر&lt;/font&gt;&lt;/div&gt;&lt;div&gt;&lt;font size=&quot;1&quot;&gt;a5-vendors&lt;/font&gt;&lt;/div&gt;" style="rounded=1;fillColor=#f8cecc;strokeColor=#b85450;strokeWidth=3;shadow=0;html=1;arcSize=50;" vertex="1" parent="1">
          <mxGeometry x="1584" y="-1079.44" width="120" height="51.13" as="geometry" />
        </mxCell>
        <mxCell id="WLHqO2OZkGNbgsktWJH0-1712" value="&lt;font style=&quot;font-size: 9px;&quot;&gt;وصول إشعار عبر البريد الالكتروني&lt;/font&gt;&lt;div&gt;&lt;span style=&quot;font-size: 9px; background-color: initial;&quot;&gt;عند ظهور بائع غير قانوني نادر جداً&lt;/span&gt;&lt;br&gt;&lt;/div&gt;&lt;div&gt;&lt;span style=&quot;font-size: 9px; background-color: initial;&quot;&gt;phone &amp;amp; a5-vendors&lt;/span&gt;&lt;/div&gt;" style="rounded=1;fillColor=#d5e8d4;strokeColor=#82b366;strokeWidth=3;shadow=0;html=1;arcSize=50;" vertex="1" parent="1">
          <mxGeometry x="1474" y="-928.31" width="120" height="60.19" as="geometry" />
        </mxCell>
        <mxCell id="WLHqO2OZkGNbgsktWJH0-1713" value="" style="endArrow=none;html=1;rounded=0;fillColor=#f8cecc;strokeColor=#b85450;exitX=0.5;exitY=0;exitDx=0;exitDy=0;" edge="1" parent="1" source="WLHqO2OZkGNbgsktWJH0-1661" target="WLHqO2OZkGNbgsktWJH0-1711">
          <mxGeometry width="50" height="50" relative="1" as="geometry">
            <mxPoint x="1790" y="-1132.99" as="sourcePoint" />
            <mxPoint x="1790" y="-1191.99" as="targetPoint" />
            <Array as="points" />
          </mxGeometry>
        </mxCell>
        <mxCell id="WLHqO2OZkGNbgsktWJH0-1714" value="" style="endArrow=none;html=1;rounded=0;fillColor=#f8cecc;strokeColor=#b85450;" edge="1" parent="1" source="WLHqO2OZkGNbgsktWJH0-1661" target="WLHqO2OZkGNbgsktWJH0-1712">
          <mxGeometry width="50" height="50" relative="1" as="geometry">
            <mxPoint x="1712.5" y="-1080.49" as="sourcePoint" />
            <mxPoint x="1697.5" y="-1151.49" as="targetPoint" />
            <Array as="points" />
          </mxGeometry>
        </mxCell>
        <mxCell id="WLHqO2OZkGNbgsktWJH0-1715" value="" style="endArrow=none;html=1;rounded=0;fillColor=#f8cecc;strokeColor=#b85450;" edge="1" parent="1" source="WLHqO2OZkGNbgsktWJH0-1661" target="WLHqO2OZkGNbgsktWJH0-1710">
          <mxGeometry width="50" height="50" relative="1" as="geometry">
            <mxPoint x="1768.25" y="-1095.0900000000001" as="sourcePoint" />
            <mxPoint x="1720" y="-1080.4943750000002" as="targetPoint" />
            <Array as="points" />
          </mxGeometry>
        </mxCell>
        <mxCell id="WLHqO2OZkGNbgsktWJH0-1722" value="&lt;span style=&quot;font-size: x-small;&quot;&gt;تقليل 25% من وقت السجن&lt;/span&gt;" style="rounded=1;fillColor=#d5e8d4;strokeColor=#82b366;strokeWidth=3;shadow=0;html=1;arcSize=50;" vertex="1" parent="1">
          <mxGeometry x="1635" y="-1190" width="150.5" height="70.19" as="geometry" />
        </mxCell>
        <mxCell id="WLHqO2OZkGNbgsktWJH0-1723" value="&lt;div&gt;&lt;span style=&quot;font-size: 9px; background-color: initial;&quot;&gt;25% زيادة سعر البيع في المستودع&lt;/span&gt;&lt;br&gt;&lt;/div&gt;&lt;div&gt;&lt;font size=&quot;1&quot;&gt;a5-economy&lt;/font&gt;&lt;/div&gt;" style="rounded=1;fillColor=#f8cecc;strokeColor=#b85450;strokeWidth=3;shadow=0;html=1;arcSize=50;" vertex="1" parent="1">
          <mxGeometry x="1756.75" y="-1270" width="145.5" height="70.19" as="geometry" />
        </mxCell>
        <mxCell id="WLHqO2OZkGNbgsktWJH0-1724" value="&lt;font size=&quot;1&quot;&gt;تقليل 25% من قيمة المخالفة&lt;/font&gt;&lt;div&gt;&lt;font size=&quot;1&quot;&gt;المقطوعة من قبل الشرطي&lt;/font&gt;&lt;/div&gt;" style="rounded=1;fillColor=#ffe6cc;strokeColor=#d79b00;strokeWidth=3;shadow=0;html=1;arcSize=50;" vertex="1" parent="1">
          <mxGeometry x="1879" y="-1189.81" width="160.5" height="80" as="geometry" />
        </mxCell>
        <mxCell id="WLHqO2OZkGNbgsktWJH0-1725" value="" style="endArrow=none;html=1;rounded=0;fillColor=#f8cecc;strokeColor=#b85450;" edge="1" parent="1" source="WLHqO2OZkGNbgsktWJH0-1645" target="WLHqO2OZkGNbgsktWJH0-1722">
          <mxGeometry width="50" height="50" relative="1" as="geometry">
            <mxPoint x="1829.5" y="-1153.68" as="sourcePoint" />
            <mxPoint x="1860.5" y="-1178.68" as="targetPoint" />
            <Array as="points" />
          </mxGeometry>
        </mxCell>
        <mxCell id="WLHqO2OZkGNbgsktWJH0-1726" value="" style="endArrow=none;html=1;rounded=0;fillColor=#f8cecc;strokeColor=#b85450;" edge="1" parent="1" source="WLHqO2OZkGNbgsktWJH0-1645" target="WLHqO2OZkGNbgsktWJH0-1723">
          <mxGeometry width="50" height="50" relative="1" as="geometry">
            <mxPoint x="2074.5" y="-1146.68" as="sourcePoint" />
            <mxPoint x="2099.5" y="-1218.68" as="targetPoint" />
            <Array as="points" />
          </mxGeometry>
        </mxCell>
        <mxCell id="WLHqO2OZkGNbgsktWJH0-1727" value="" style="endArrow=none;html=1;rounded=0;fillColor=#f8cecc;strokeColor=#b85450;" edge="1" parent="1" source="WLHqO2OZkGNbgsktWJH0-1645" target="WLHqO2OZkGNbgsktWJH0-1724">
          <mxGeometry width="50" height="50" relative="1" as="geometry">
            <mxPoint x="2084.5" y="-1134.68" as="sourcePoint" />
            <mxPoint x="2144.5" y="-1146.68" as="targetPoint" />
            <Array as="points" />
          </mxGeometry>
        </mxCell>
        <mxCell id="WLHqO2OZkGNbgsktWJH0-1728" style="endArrow=none;strokeWidth=6;strokeColor=#005700;html=1;fillColor=#008a00;" edge="1" parent="1" source="1515" target="WLHqO2OZkGNbgsktWJH0-1644">
          <mxGeometry relative="1" as="geometry">
            <mxPoint x="1163.25" y="676.5" as="sourcePoint" />
            <mxPoint x="548.25" y="343.5" as="targetPoint" />
          </mxGeometry>
        </mxCell>
        <mxCell id="WLHqO2OZkGNbgsktWJH0-1732" value="&lt;b&gt;baby driver&lt;/b&gt;" style="ellipse;whiteSpace=wrap;html=1;shadow=0;fontFamily=Helvetica;fontSize=20;fontColor=#000000;align=center;strokeWidth=3;fillColor=#f0a30a;strokeColor=#BD7000;" vertex="1" parent="1">
          <mxGeometry x="1693.5" y="-151.31999999999994" width="120" height="120" as="geometry" />
        </mxCell>
        <mxCell id="WLHqO2OZkGNbgsktWJH0-1734" value="" style="edgeStyle=none;endArrow=none;strokeWidth=3;strokeColor=#C73500;html=1;fillColor=#fa6800;" edge="1" parent="1" source="WLHqO2OZkGNbgsktWJH0-1732" target="WLHqO2OZkGNbgsktWJH0-1742">
          <mxGeometry x="-221.5" y="56.5" width="100" height="100" as="geometry">
            <mxPoint x="932.5" y="-259.1199999999999" as="sourcePoint" />
            <mxPoint x="1881.125" y="-24.11999999999989" as="targetPoint" />
          </mxGeometry>
        </mxCell>
        <mxCell id="WLHqO2OZkGNbgsktWJH0-1735" value="" style="edgeStyle=none;endArrow=none;strokeWidth=3;strokeColor=#C73500;html=1;fillColor=#fa6800;" edge="1" parent="1" source="WLHqO2OZkGNbgsktWJH0-1732" target="WLHqO2OZkGNbgsktWJH0-1740">
          <mxGeometry x="-221.5" y="56.5" width="100" height="100" as="geometry">
            <mxPoint x="932.5" y="-259.1199999999999" as="sourcePoint" />
            <mxPoint x="1662.1923076923076" y="25.88000000000011" as="targetPoint" />
          </mxGeometry>
        </mxCell>
        <mxCell id="WLHqO2OZkGNbgsktWJH0-1736" value="" style="edgeStyle=none;endArrow=none;strokeWidth=3;strokeColor=#C73500;html=1;fillColor=#fa6800;" edge="1" parent="1" source="WLHqO2OZkGNbgsktWJH0-1732" target="WLHqO2OZkGNbgsktWJH0-1739">
          <mxGeometry x="-221.5" y="56.5" width="100" height="100" as="geometry">
            <mxPoint x="1628.0999999999995" y="0.21000000000003638" as="sourcePoint" />
            <mxPoint x="1564" y="-13.829999999999927" as="targetPoint" />
          </mxGeometry>
        </mxCell>
        <mxCell id="WLHqO2OZkGNbgsktWJH0-1738" value="" style="edgeStyle=none;endArrow=none;strokeWidth=3;strokeColor=#C73500;html=1;fillColor=#fa6800;" edge="1" parent="1" source="WLHqO2OZkGNbgsktWJH0-1732" target="WLHqO2OZkGNbgsktWJH0-1741">
          <mxGeometry x="-221.5" y="56.5" width="100" height="100" as="geometry">
            <mxPoint x="1706" y="-135.6199999999999" as="sourcePoint" />
            <mxPoint x="1674" y="-185.6199999999999" as="targetPoint" />
          </mxGeometry>
        </mxCell>
        <mxCell id="WLHqO2OZkGNbgsktWJH0-1739" value="75%" style="rounded=1;fillColor=#dae8fc;strokeColor=#6c8ebf;strokeWidth=3;shadow=0;html=1;arcSize=50;" vertex="1" parent="1">
          <mxGeometry x="1543" y="35.6400000000001" width="30" height="30" as="geometry" />
        </mxCell>
        <mxCell id="WLHqO2OZkGNbgsktWJH0-1740" value="50%" style="rounded=1;fillColor=#dae8fc;strokeColor=#6c8ebf;strokeWidth=3;shadow=0;html=1;arcSize=50;" vertex="1" parent="1">
          <mxGeometry x="1917.5" y="40.37000000000012" width="30" height="30" as="geometry" />
        </mxCell>
        <mxCell id="WLHqO2OZkGNbgsktWJH0-1741" value="100%" style="rounded=1;fillColor=#dae8fc;strokeColor=#6c8ebf;strokeWidth=3;shadow=0;html=1;arcSize=50;" vertex="1" parent="1">
          <mxGeometry x="1537" y="-203.12999999999988" width="30" height="30" as="geometry" />
        </mxCell>
        <mxCell id="WLHqO2OZkGNbgsktWJH0-1742" value="25%" style="rounded=1;fillColor=#dae8fc;strokeColor=#6c8ebf;strokeWidth=3;shadow=0;html=1;arcSize=50;" vertex="1" parent="1">
          <mxGeometry x="1908" y="-200.93999999999983" width="30" height="30" as="geometry" />
        </mxCell>
        <mxCell id="WLHqO2OZkGNbgsktWJH0-1743" value="&lt;div&gt;&lt;font size=&quot;1&quot;&gt;زيادة نسبة الحظ 10% عندما&lt;/font&gt;&lt;/div&gt;&lt;div&gt;&lt;font size=&quot;1&quot;&gt;يقوم اللاعب بالبحث عن مفتاح&lt;/font&gt;&lt;/div&gt;&lt;div&gt;&lt;font size=&quot;1&quot;&gt;المركبة&lt;/font&gt;&lt;/div&gt;" style="rounded=1;fillColor=#f8cecc;strokeColor=#b85450;strokeWidth=3;shadow=0;html=1;arcSize=50;" vertex="1" parent="1">
          <mxGeometry x="2038" y="-241.5999999999999" width="120" height="51.13" as="geometry" />
        </mxCell>
        <mxCell id="WLHqO2OZkGNbgsktWJH0-1744" value="" style="endArrow=none;html=1;rounded=0;fillColor=#f8cecc;strokeColor=#b85450;" edge="1" parent="1" source="WLHqO2OZkGNbgsktWJH0-1742" target="WLHqO2OZkGNbgsktWJH0-1743">
          <mxGeometry width="50" height="50" relative="1" as="geometry">
            <mxPoint x="2038.5" y="-285.1299999999999" as="sourcePoint" />
            <mxPoint x="2085.4999999999995" y="-295.6299999999999" as="targetPoint" />
            <Array as="points" />
          </mxGeometry>
        </mxCell>
        <mxCell id="WLHqO2OZkGNbgsktWJH0-1745" value="&lt;font size=&quot;1&quot;&gt;تخفيض نسبة 5% من ارتفاع الضغط عند&lt;/font&gt;&lt;div&gt;&lt;font size=&quot;1&quot;&gt;&amp;nbsp;القيادة&amp;nbsp;&lt;/font&gt;&lt;span style=&quot;font-size: x-small; background-color: initial;&quot;&gt;بسرعة عالية&amp;nbsp;&lt;/span&gt;&lt;/div&gt;" style="rounded=1;fillColor=#ffe6cc;strokeColor=#d79b00;strokeWidth=3;shadow=0;html=1;arcSize=50;" vertex="1" parent="1">
          <mxGeometry x="1938" y="-332.4399999999998" width="141.5" height="51.5" as="geometry" />
        </mxCell>
        <mxCell id="WLHqO2OZkGNbgsktWJH0-1746" value="" style="endArrow=none;html=1;rounded=0;fillColor=#f8cecc;strokeColor=#b85450;" edge="1" parent="1" source="WLHqO2OZkGNbgsktWJH0-1742" target="WLHqO2OZkGNbgsktWJH0-1745">
          <mxGeometry width="50" height="50" relative="1" as="geometry">
            <mxPoint x="2058.5" y="-317.8799999999999" as="sourcePoint" />
            <mxPoint x="2088.5" y="-317.8799999999999" as="targetPoint" />
            <Array as="points" />
          </mxGeometry>
        </mxCell>
        <mxCell id="WLHqO2OZkGNbgsktWJH0-1747" value="&lt;font size=&quot;1&quot;&gt;زيادة فرصة 5% من طيران اللاعب&amp;nbsp;&lt;/font&gt;&lt;div&gt;&lt;font size=&quot;1&quot;&gt;من الجامة الأمامية عند الاصطدام&amp;nbsp;&lt;/font&gt;&lt;/div&gt;&lt;div&gt;&lt;font size=&quot;1&quot;&gt;وهو يقود بسرعة عالية&lt;/font&gt;&lt;/div&gt;" style="rounded=1;fillColor=#d5e8d4;strokeColor=#82b366;strokeWidth=3;shadow=0;html=1;arcSize=50;" vertex="1" parent="1">
          <mxGeometry x="2028" y="-130.27999999999986" width="130" height="46.5" as="geometry" />
        </mxCell>
        <mxCell id="WLHqO2OZkGNbgsktWJH0-1748" value="" style="endArrow=none;html=1;rounded=0;fillColor=#f8cecc;strokeColor=#b85450;entryX=0.5;entryY=0;entryDx=0;entryDy=0;" edge="1" parent="1" source="WLHqO2OZkGNbgsktWJH0-1742" target="WLHqO2OZkGNbgsktWJH0-1747">
          <mxGeometry width="50" height="50" relative="1" as="geometry">
            <mxPoint x="2028.5" y="-260.6299999999999" as="sourcePoint" />
            <mxPoint x="2058.5" y="-260.6299999999999" as="targetPoint" />
            <Array as="points" />
          </mxGeometry>
        </mxCell>
        <mxCell id="WLHqO2OZkGNbgsktWJH0-1749" value="&lt;font size=&quot;1&quot;&gt;تقليل 10% من فرصة فقدان&amp;nbsp;&lt;/font&gt;&lt;div&gt;&lt;font size=&quot;1&quot;&gt;الإطارات عند القفز بالمركبة&lt;/font&gt;&lt;/div&gt;&lt;div&gt;&lt;font size=&quot;1&quot;&gt;من اماكن مرتفعه&lt;/font&gt;&lt;/div&gt;" style="rounded=1;fillColor=#f8cecc;strokeColor=#b85450;strokeWidth=3;shadow=0;html=1;arcSize=50;" vertex="1" parent="1">
          <mxGeometry x="1959.5" y="110.70000000000005" width="120" height="56.13" as="geometry" />
        </mxCell>
        <mxCell id="WLHqO2OZkGNbgsktWJH0-1750" value="" style="endArrow=none;html=1;rounded=0;fillColor=#f8cecc;strokeColor=#b85450;" edge="1" parent="1" source="WLHqO2OZkGNbgsktWJH0-1740" target="WLHqO2OZkGNbgsktWJH0-1749">
          <mxGeometry width="50" height="50" relative="1" as="geometry">
            <mxPoint x="1288" y="207.8800000000001" as="sourcePoint" />
            <mxPoint x="1320.9999999999995" y="207.3800000000001" as="targetPoint" />
            <Array as="points" />
          </mxGeometry>
        </mxCell>
        <mxCell id="WLHqO2OZkGNbgsktWJH0-1751" value="&lt;font size=&quot;1&quot;&gt;زيادة فرصة 5% من طيران اللاعب&amp;nbsp;&lt;/font&gt;&lt;div&gt;&lt;font size=&quot;1&quot;&gt;من الجامة الأمامية عند الاصطدام&amp;nbsp;&lt;/font&gt;&lt;/div&gt;&lt;div&gt;&lt;font size=&quot;1&quot;&gt;وهو يقود بسرعة عالية&lt;/font&gt;&lt;/div&gt;" style="rounded=1;fillColor=#ffe6cc;strokeColor=#d79b00;strokeWidth=3;shadow=0;html=1;arcSize=50;" vertex="1" parent="1">
          <mxGeometry x="1808" y="108.68000000000006" width="139.5" height="57.81" as="geometry" />
        </mxCell>
        <mxCell id="WLHqO2OZkGNbgsktWJH0-1752" value="" style="endArrow=none;html=1;rounded=0;fillColor=#f8cecc;strokeColor=#b85450;" edge="1" parent="1" source="WLHqO2OZkGNbgsktWJH0-1740" target="WLHqO2OZkGNbgsktWJH0-1751">
          <mxGeometry width="50" height="50" relative="1" as="geometry">
            <mxPoint x="1288" y="200.00000000000023" as="sourcePoint" />
            <mxPoint x="1324" y="185.1300000000001" as="targetPoint" />
            <Array as="points" />
          </mxGeometry>
        </mxCell>
        <mxCell id="WLHqO2OZkGNbgsktWJH0-1753" value="&lt;font size=&quot;1&quot;&gt;زيادة 20% من وقت المحاولة عند&amp;nbsp;&lt;/font&gt;&lt;div&gt;&lt;font size=&quot;1&quot;&gt;سرقة مركبة بأستخدام فاتح الأقفال&lt;/font&gt;&lt;/div&gt;" style="rounded=1;fillColor=#d5e8d4;strokeColor=#82b366;strokeWidth=3;shadow=0;html=1;arcSize=50;" vertex="1" parent="1">
          <mxGeometry x="1992.5" y="0.029999999999972715" width="130.5" height="56.5" as="geometry" />
        </mxCell>
        <mxCell id="WLHqO2OZkGNbgsktWJH0-1754" value="" style="endArrow=none;html=1;rounded=0;fillColor=#f8cecc;strokeColor=#b85450;" edge="1" parent="1" source="WLHqO2OZkGNbgsktWJH0-1740" target="WLHqO2OZkGNbgsktWJH0-1753">
          <mxGeometry width="50" height="50" relative="1" as="geometry">
            <mxPoint x="1288" y="213.8800000000001" as="sourcePoint" />
            <mxPoint x="1294" y="242.3800000000001" as="targetPoint" />
            <Array as="points" />
          </mxGeometry>
        </mxCell>
        <mxCell id="WLHqO2OZkGNbgsktWJH0-1755" value="&lt;font color=&quot;#f19c99&quot;&gt;&lt;span style=&quot;font-size: 20px;&quot;&gt;baby driver&lt;/span&gt;&lt;/font&gt;" style="swimlane;fontStyle=0;childLayout=stackLayout;horizontal=1;startSize=30;horizontalStack=0;resizeParent=1;resizeParentMax=0;resizeLast=0;collapsible=1;marginBottom=0;whiteSpace=wrap;html=1;" vertex="1" parent="1">
          <mxGeometry x="2208" y="70" width="130" height="120" as="geometry" />
        </mxCell>
        <mxCell id="WLHqO2OZkGNbgsktWJH0-1756" value="تتم زيادة 50% من هذا المومنتم عندما يقوم اللاعب بقيادة المركبة وتكتمل عندما يقوم بعمل مهام سرقة المركبات حتى تصل 100%" style="text;strokeColor=none;fillColor=none;align=left;verticalAlign=middle;spacingLeft=4;spacingRight=4;overflow=hidden;points=[[0,0.5],[1,0.5]];portConstraint=eastwest;rotatable=0;whiteSpace=wrap;html=1;" vertex="1" parent="WLHqO2OZkGNbgsktWJH0-1755">
          <mxGeometry y="30" width="130" height="90" as="geometry" />
        </mxCell>
        <mxCell id="WLHqO2OZkGNbgsktWJH0-1757" value="" style="curved=1;endArrow=classic;html=1;rounded=0;fillColor=#fa6800;strokeColor=#C73500;" edge="1" parent="1" target="WLHqO2OZkGNbgsktWJH0-1755">
          <mxGeometry width="50" height="50" relative="1" as="geometry">
            <mxPoint x="1788" y="-51.12999999999988" as="sourcePoint" />
            <mxPoint x="1948" y="10.000000000000227" as="targetPoint" />
            <Array as="points">
              <mxPoint x="1868" y="-21.12999999999988" />
              <mxPoint x="1878" y="18.87000000000012" />
              <mxPoint x="2028" y="78.87000000000012" />
              <mxPoint x="2058" y="88.87000000000012" />
            </Array>
          </mxGeometry>
        </mxCell>
        <mxCell id="WLHqO2OZkGNbgsktWJH0-1758" value="&lt;font size=&quot;1&quot;&gt;الحصول على 10% تخفيض&lt;/font&gt;&lt;div&gt;&lt;font size=&quot;1&quot;&gt;عندما يتم تصليح المركبة عند&amp;nbsp;&lt;/font&gt;&lt;/div&gt;&lt;div&gt;&lt;font size=&quot;1&quot;&gt;الميكانيكي&lt;/font&gt;&lt;/div&gt;" style="rounded=1;fillColor=#f8cecc;strokeColor=#b85450;strokeWidth=3;shadow=0;html=1;arcSize=50;" vertex="1" parent="1">
          <mxGeometry x="1408" y="108.87000000000012" width="125" height="62.02" as="geometry" />
        </mxCell>
        <mxCell id="WLHqO2OZkGNbgsktWJH0-1759" value="&lt;font size=&quot;1&quot;&gt;تخفيض نسبة 15% من ارتفاع الضغط عند&lt;/font&gt;&lt;div&gt;&lt;font size=&quot;1&quot;&gt;&amp;nbsp;القيادة&amp;nbsp;&lt;/font&gt;&lt;span style=&quot;font-size: x-small; background-color: initial;&quot;&gt;بسرعة عالية&amp;nbsp;&lt;/span&gt;&lt;/div&gt;" style="rounded=1;fillColor=#d5e8d4;strokeColor=#82b366;strokeWidth=3;shadow=0;html=1;arcSize=50;" vertex="1" parent="1">
          <mxGeometry x="1348" y="18.680000000000064" width="154" height="67.67" as="geometry" />
        </mxCell>
        <mxCell id="WLHqO2OZkGNbgsktWJH0-1760" value="&lt;font size=&quot;1&quot;&gt;زيادة 20% من وقت المحاولة عند&amp;nbsp;&lt;/font&gt;&lt;div&gt;&lt;font size=&quot;1&quot;&gt;سرقة مركبة بأستخدام فاتح الأقفال&lt;/font&gt;&lt;/div&gt;" style="rounded=1;fillColor=#ffe6cc;strokeColor=#d79b00;strokeWidth=3;shadow=0;html=1;arcSize=50;" vertex="1" parent="1">
          <mxGeometry x="1358" y="-61.319999999999936" width="140" height="61.35" as="geometry" />
        </mxCell>
        <mxCell id="WLHqO2OZkGNbgsktWJH0-1761" value="" style="endArrow=none;html=1;rounded=0;fillColor=#f8cecc;strokeColor=#b85450;" edge="1" parent="1" source="WLHqO2OZkGNbgsktWJH0-1739" target="WLHqO2OZkGNbgsktWJH0-1760">
          <mxGeometry width="50" height="50" relative="1" as="geometry">
            <mxPoint x="1518" y="-206.8399999999998" as="sourcePoint" />
            <mxPoint x="1473" y="-178.8399999999998" as="targetPoint" />
            <Array as="points" />
          </mxGeometry>
        </mxCell>
        <mxCell id="WLHqO2OZkGNbgsktWJH0-1762" value="" style="endArrow=none;html=1;rounded=0;fillColor=#f8cecc;strokeColor=#b85450;" edge="1" parent="1" source="WLHqO2OZkGNbgsktWJH0-1739" target="WLHqO2OZkGNbgsktWJH0-1759">
          <mxGeometry width="50" height="50" relative="1" as="geometry">
            <mxPoint x="1503" y="-141.31999999999994" as="sourcePoint" />
            <mxPoint x="1458" y="-113.31999999999994" as="targetPoint" />
            <Array as="points" />
          </mxGeometry>
        </mxCell>
        <mxCell id="WLHqO2OZkGNbgsktWJH0-1763" value="" style="endArrow=none;html=1;rounded=0;fillColor=#f8cecc;strokeColor=#b85450;entryX=0.994;entryY=0.373;entryDx=0;entryDy=0;entryPerimeter=0;" edge="1" parent="1" source="WLHqO2OZkGNbgsktWJH0-1739" target="WLHqO2OZkGNbgsktWJH0-1758">
          <mxGeometry width="50" height="50" relative="1" as="geometry">
            <mxPoint x="1518" y="-93.31999999999994" as="sourcePoint" />
            <mxPoint x="1473" y="-65.31999999999994" as="targetPoint" />
            <Array as="points" />
          </mxGeometry>
        </mxCell>
        <mxCell id="WLHqO2OZkGNbgsktWJH0-1764" value="&lt;div&gt;&lt;font size=&quot;1&quot;&gt;زيادة نسبة الحظ 20% عندما&lt;/font&gt;&lt;/div&gt;&lt;div&gt;&lt;font size=&quot;1&quot;&gt;يقوم اللاعب بالبحث عن مفتاح&lt;/font&gt;&lt;/div&gt;&lt;div&gt;&lt;font size=&quot;1&quot;&gt;المركبة&lt;/font&gt;&lt;/div&gt;" style="rounded=1;fillColor=#ffe6cc;strokeColor=#d79b00;strokeWidth=3;shadow=0;html=1;arcSize=50;" vertex="1" parent="1">
          <mxGeometry x="1378" y="-261.1299999999999" width="124" height="51" as="geometry" />
        </mxCell>
        <mxCell id="WLHqO2OZkGNbgsktWJH0-1765" value="&lt;font size=&quot;1&quot;&gt;تقليل نسبة 40% من حدوث&lt;/font&gt;&lt;div&gt;&lt;font size=&quot;1&quot;&gt;اغماء للاعب عند اصطدامة&lt;/font&gt;&lt;/div&gt;&lt;div&gt;&lt;font size=&quot;1&quot;&gt;وهو يقود المركبة بسرعة عاليه&lt;/font&gt;&lt;/div&gt;" style="rounded=1;fillColor=#f8cecc;strokeColor=#b85450;strokeWidth=3;shadow=0;html=1;arcSize=50;" vertex="1" parent="1">
          <mxGeometry x="1492" y="-320.7599999999999" width="120" height="51.13" as="geometry" />
        </mxCell>
        <mxCell id="WLHqO2OZkGNbgsktWJH0-1766" value="&lt;font size=&quot;1&quot;&gt;تقليل 20% من فرصة فقدان&amp;nbsp;&lt;/font&gt;&lt;div&gt;&lt;font size=&quot;1&quot;&gt;الإطارات عند القفز بالمركبة&lt;/font&gt;&lt;/div&gt;&lt;div&gt;&lt;font size=&quot;1&quot;&gt;من اماكن مرتفعه&lt;/font&gt;&lt;/div&gt;" style="rounded=1;fillColor=#d5e8d4;strokeColor=#82b366;strokeWidth=3;shadow=0;html=1;arcSize=50;" vertex="1" parent="1">
          <mxGeometry x="1398" y="-169.62999999999988" width="120" height="60.19" as="geometry" />
        </mxCell>
        <mxCell id="WLHqO2OZkGNbgsktWJH0-1767" value="" style="endArrow=none;html=1;rounded=0;fillColor=#f8cecc;strokeColor=#b85450;exitX=0.5;exitY=0;exitDx=0;exitDy=0;" edge="1" parent="1" source="WLHqO2OZkGNbgsktWJH0-1741" target="WLHqO2OZkGNbgsktWJH0-1765">
          <mxGeometry width="50" height="50" relative="1" as="geometry">
            <mxPoint x="1698" y="-374.30999999999995" as="sourcePoint" />
            <mxPoint x="1698" y="-433.30999999999995" as="targetPoint" />
            <Array as="points" />
          </mxGeometry>
        </mxCell>
        <mxCell id="WLHqO2OZkGNbgsktWJH0-1768" value="" style="endArrow=none;html=1;rounded=0;fillColor=#f8cecc;strokeColor=#b85450;" edge="1" parent="1" source="WLHqO2OZkGNbgsktWJH0-1741" target="WLHqO2OZkGNbgsktWJH0-1766">
          <mxGeometry width="50" height="50" relative="1" as="geometry">
            <mxPoint x="1620.5" y="-321.80999999999995" as="sourcePoint" />
            <mxPoint x="1605.5" y="-392.80999999999995" as="targetPoint" />
            <Array as="points" />
          </mxGeometry>
        </mxCell>
        <mxCell id="WLHqO2OZkGNbgsktWJH0-1769" value="" style="endArrow=none;html=1;rounded=0;fillColor=#f8cecc;strokeColor=#b85450;" edge="1" parent="1" source="WLHqO2OZkGNbgsktWJH0-1741" target="WLHqO2OZkGNbgsktWJH0-1764">
          <mxGeometry width="50" height="50" relative="1" as="geometry">
            <mxPoint x="1676.2499999999998" y="-336.40999999999985" as="sourcePoint" />
            <mxPoint x="1628" y="-321.8143749999999" as="targetPoint" />
            <Array as="points" />
          </mxGeometry>
        </mxCell>
        <mxCell id="WLHqO2OZkGNbgsktWJH0-1777" style="endArrow=none;strokeWidth=6;strokeColor=#10739e;html=1;fillColor=#b1ddf0;" edge="1" parent="1" target="WLHqO2OZkGNbgsktWJH0-1778" source="1515">
          <mxGeometry relative="1" as="geometry">
            <mxPoint x="184.75" y="1160.12" as="sourcePoint" />
            <mxPoint x="404.75" y="589.12" as="targetPoint" />
            <Array as="points">
              <mxPoint x="1260" y="20" />
            </Array>
          </mxGeometry>
        </mxCell>
        <mxCell id="WLHqO2OZkGNbgsktWJH0-1778" value="&lt;b&gt;police&lt;/b&gt;" style="ellipse;whiteSpace=wrap;html=1;shadow=0;fontFamily=Helvetica;fontSize=20;align=center;strokeWidth=3;fillColor=#b1ddf0;strokeColor=#10739e;" vertex="1" parent="1">
          <mxGeometry x="1655.5" y="451.1199999999999" width="120" height="120" as="geometry" />
        </mxCell>
        <mxCell id="WLHqO2OZkGNbgsktWJH0-1779" value="" style="edgeStyle=none;endArrow=none;strokeWidth=3;strokeColor=#10739e;html=1;fillColor=#b1ddf0;" edge="1" parent="1" source="WLHqO2OZkGNbgsktWJH0-1778" target="WLHqO2OZkGNbgsktWJH0-1786">
          <mxGeometry x="-221.5" y="56.5" width="100" height="100" as="geometry">
            <mxPoint x="894.5" y="343.32000000000016" as="sourcePoint" />
            <mxPoint x="1843.125" y="578.3200000000002" as="targetPoint" />
          </mxGeometry>
        </mxCell>
        <mxCell id="WLHqO2OZkGNbgsktWJH0-1780" value="" style="edgeStyle=none;endArrow=none;strokeWidth=3;strokeColor=#10739e;html=1;fillColor=#b1ddf0;" edge="1" parent="1" source="WLHqO2OZkGNbgsktWJH0-1778" target="WLHqO2OZkGNbgsktWJH0-1784">
          <mxGeometry x="-221.5" y="56.5" width="100" height="100" as="geometry">
            <mxPoint x="894.5" y="343.32000000000016" as="sourcePoint" />
            <mxPoint x="1624.1923076923076" y="628.3200000000002" as="targetPoint" />
          </mxGeometry>
        </mxCell>
        <mxCell id="WLHqO2OZkGNbgsktWJH0-1781" value="" style="edgeStyle=none;endArrow=none;strokeWidth=3;strokeColor=#10739e;html=1;fillColor=#b1ddf0;" edge="1" parent="1" source="WLHqO2OZkGNbgsktWJH0-1778" target="WLHqO2OZkGNbgsktWJH0-1783">
          <mxGeometry x="-221.5" y="56.5" width="100" height="100" as="geometry">
            <mxPoint x="1590.0999999999995" y="602.6500000000001" as="sourcePoint" />
            <mxPoint x="1526" y="588.6100000000001" as="targetPoint" />
          </mxGeometry>
        </mxCell>
        <mxCell id="WLHqO2OZkGNbgsktWJH0-1782" value="" style="edgeStyle=none;endArrow=none;strokeWidth=3;strokeColor=#10739e;html=1;fillColor=#b1ddf0;" edge="1" parent="1" source="WLHqO2OZkGNbgsktWJH0-1778" target="WLHqO2OZkGNbgsktWJH0-1785">
          <mxGeometry x="-221.5" y="56.5" width="100" height="100" as="geometry">
            <mxPoint x="1668" y="466.82000000000016" as="sourcePoint" />
            <mxPoint x="1636" y="416.82000000000016" as="targetPoint" />
          </mxGeometry>
        </mxCell>
        <mxCell id="WLHqO2OZkGNbgsktWJH0-1783" value="75%" style="rounded=1;fillColor=#dae8fc;strokeColor=#6c8ebf;strokeWidth=3;shadow=0;html=1;arcSize=50;" vertex="1" parent="1">
          <mxGeometry x="1505" y="638.0799999999999" width="30" height="30" as="geometry" />
        </mxCell>
        <mxCell id="WLHqO2OZkGNbgsktWJH0-1784" value="50%" style="rounded=1;fillColor=#dae8fc;strokeColor=#6c8ebf;strokeWidth=3;shadow=0;html=1;arcSize=50;" vertex="1" parent="1">
          <mxGeometry x="1879.5" y="642.81" width="30" height="30" as="geometry" />
        </mxCell>
        <mxCell id="WLHqO2OZkGNbgsktWJH0-1785" value="100%" style="rounded=1;fillColor=#dae8fc;strokeColor=#6c8ebf;strokeWidth=3;shadow=0;html=1;arcSize=50;" vertex="1" parent="1">
          <mxGeometry x="1499" y="399.30999999999995" width="30" height="30" as="geometry" />
        </mxCell>
        <mxCell id="WLHqO2OZkGNbgsktWJH0-1786" value="25%" style="rounded=1;fillColor=#dae8fc;strokeColor=#6c8ebf;strokeWidth=3;shadow=0;html=1;arcSize=50;" vertex="1" parent="1">
          <mxGeometry x="1870" y="401.5" width="30" height="30" as="geometry" />
        </mxCell>
        <mxCell id="WLHqO2OZkGNbgsktWJH0-1787" value="&lt;div&gt;&lt;font size=&quot;1&quot;&gt;الحصول على نسبة 5% من&lt;/font&gt;&lt;/div&gt;&lt;div&gt;&lt;font size=&quot;1&quot;&gt;المخالفات التي يعطيها للمواطنين&lt;/font&gt;&lt;/div&gt;" style="rounded=1;fillColor=#f8cecc;strokeColor=#b85450;strokeWidth=3;shadow=0;html=1;arcSize=50;" vertex="1" parent="1">
          <mxGeometry x="2000" y="360.84000000000015" width="120" height="51.13" as="geometry" />
        </mxCell>
        <mxCell id="WLHqO2OZkGNbgsktWJH0-1788" value="" style="endArrow=none;html=1;rounded=0;fillColor=#f8cecc;strokeColor=#b85450;" edge="1" parent="1" source="WLHqO2OZkGNbgsktWJH0-1786" target="WLHqO2OZkGNbgsktWJH0-1787">
          <mxGeometry width="50" height="50" relative="1" as="geometry">
            <mxPoint x="2000.5" y="317.30999999999995" as="sourcePoint" />
            <mxPoint x="2047.4999999999995" y="306.80999999999995" as="targetPoint" />
            <Array as="points" />
          </mxGeometry>
        </mxCell>
        <mxCell id="WLHqO2OZkGNbgsktWJH0-1789" value="&lt;font size=&quot;1&quot;&gt;زيادة نسبة المكافأة الأسبوعية بـ&lt;br&gt;5%&lt;/font&gt;" style="rounded=1;fillColor=#ffe6cc;strokeColor=#d79b00;strokeWidth=3;shadow=0;html=1;arcSize=50;" vertex="1" parent="1">
          <mxGeometry x="1900" y="270" width="141.5" height="51.5" as="geometry" />
        </mxCell>
        <mxCell id="WLHqO2OZkGNbgsktWJH0-1790" value="" style="endArrow=none;html=1;rounded=0;fillColor=#f8cecc;strokeColor=#b85450;" edge="1" parent="1" source="WLHqO2OZkGNbgsktWJH0-1786" target="WLHqO2OZkGNbgsktWJH0-1789">
          <mxGeometry width="50" height="50" relative="1" as="geometry">
            <mxPoint x="2020.5" y="284.55999999999995" as="sourcePoint" />
            <mxPoint x="2050.5" y="284.55999999999995" as="targetPoint" />
            <Array as="points" />
          </mxGeometry>
        </mxCell>
        <mxCell id="WLHqO2OZkGNbgsktWJH0-1791" value="&lt;font size=&quot;1&quot;&gt;فتح ترقية وحدة الدراجات&lt;/font&gt;" style="rounded=1;fillColor=#d5e8d4;strokeColor=#82b366;strokeWidth=3;shadow=0;html=1;arcSize=50;" vertex="1" parent="1">
          <mxGeometry x="1990" y="472.1600000000001" width="130" height="46.5" as="geometry" />
        </mxCell>
        <mxCell id="WLHqO2OZkGNbgsktWJH0-1792" value="" style="endArrow=none;html=1;rounded=0;fillColor=#f8cecc;strokeColor=#b85450;entryX=0.5;entryY=0;entryDx=0;entryDy=0;" edge="1" parent="1" source="WLHqO2OZkGNbgsktWJH0-1786" target="WLHqO2OZkGNbgsktWJH0-1791">
          <mxGeometry width="50" height="50" relative="1" as="geometry">
            <mxPoint x="1990.5" y="341.80999999999995" as="sourcePoint" />
            <mxPoint x="2020.5" y="341.80999999999995" as="targetPoint" />
            <Array as="points" />
          </mxGeometry>
        </mxCell>
        <mxCell id="WLHqO2OZkGNbgsktWJH0-1793" value="&lt;div&gt;&lt;font size=&quot;1&quot;&gt;الحصول على نسبة 5% من&lt;/font&gt;&lt;/div&gt;&lt;div&gt;&lt;font size=&quot;1&quot;&gt;المخالفات التي يعطيها للمواطنين&lt;/font&gt;&lt;/div&gt;" style="rounded=1;fillColor=#f8cecc;strokeColor=#b85450;strokeWidth=3;shadow=0;html=1;arcSize=50;" vertex="1" parent="1">
          <mxGeometry x="1921.5" y="713.1399999999999" width="120" height="56.13" as="geometry" />
        </mxCell>
        <mxCell id="WLHqO2OZkGNbgsktWJH0-1794" value="" style="endArrow=none;html=1;rounded=0;fillColor=#f8cecc;strokeColor=#b85450;" edge="1" parent="1" source="WLHqO2OZkGNbgsktWJH0-1784" target="WLHqO2OZkGNbgsktWJH0-1793">
          <mxGeometry width="50" height="50" relative="1" as="geometry">
            <mxPoint x="1250" y="810.3200000000002" as="sourcePoint" />
            <mxPoint x="1282.9999999999995" y="809.8200000000002" as="targetPoint" />
            <Array as="points" />
          </mxGeometry>
        </mxCell>
        <mxCell id="WLHqO2OZkGNbgsktWJH0-1795" value="&lt;span style=&quot;font-size: x-small;&quot;&gt;زيادة نسبة المكافأة الأسبوعية بـ&lt;/span&gt;&lt;br style=&quot;font-size: x-small;&quot;&gt;&lt;span style=&quot;font-size: x-small;&quot;&gt;5%&lt;/span&gt;" style="rounded=1;fillColor=#ffe6cc;strokeColor=#d79b00;strokeWidth=3;shadow=0;html=1;arcSize=50;" vertex="1" parent="1">
          <mxGeometry x="1770" y="711.1199999999999" width="139.5" height="57.81" as="geometry" />
        </mxCell>
        <mxCell id="WLHqO2OZkGNbgsktWJH0-1796" value="" style="endArrow=none;html=1;rounded=0;fillColor=#f8cecc;strokeColor=#b85450;" edge="1" parent="1" source="WLHqO2OZkGNbgsktWJH0-1784" target="WLHqO2OZkGNbgsktWJH0-1795">
          <mxGeometry width="50" height="50" relative="1" as="geometry">
            <mxPoint x="1250" y="802.44" as="sourcePoint" />
            <mxPoint x="1286" y="787.5700000000002" as="targetPoint" />
            <Array as="points" />
          </mxGeometry>
        </mxCell>
        <mxCell id="WLHqO2OZkGNbgsktWJH0-1797" value="&lt;font size=&quot;1&quot;&gt;الحصول على مومنتم اضافي عند&lt;/font&gt;&lt;div&gt;&lt;font size=&quot;1&quot;&gt;سجن المجرمين&lt;/font&gt;&lt;/div&gt;" style="rounded=1;fillColor=#d5e8d4;strokeColor=#82b366;strokeWidth=3;shadow=0;html=1;arcSize=50;" vertex="1" parent="1">
          <mxGeometry x="1954.5" y="602.4699999999998" width="130.5" height="56.5" as="geometry" />
        </mxCell>
        <mxCell id="WLHqO2OZkGNbgsktWJH0-1798" value="" style="endArrow=none;html=1;rounded=0;fillColor=#f8cecc;strokeColor=#b85450;" edge="1" parent="1" source="WLHqO2OZkGNbgsktWJH0-1784" target="WLHqO2OZkGNbgsktWJH0-1797">
          <mxGeometry width="50" height="50" relative="1" as="geometry">
            <mxPoint x="1250" y="816.3200000000002" as="sourcePoint" />
            <mxPoint x="1256" y="844.8200000000002" as="targetPoint" />
            <Array as="points" />
          </mxGeometry>
        </mxCell>
        <mxCell id="WLHqO2OZkGNbgsktWJH0-1799" value="&lt;font color=&quot;#f19c99&quot;&gt;&lt;span style=&quot;font-size: 20px;&quot;&gt;police&lt;/span&gt;&lt;/font&gt;" style="swimlane;fontStyle=0;childLayout=stackLayout;horizontal=1;startSize=30;horizontalStack=0;resizeParent=1;resizeParentMax=0;resizeLast=0;collapsible=1;marginBottom=0;whiteSpace=wrap;html=1;" vertex="1" parent="1">
          <mxGeometry x="2170" y="672.44" width="130" height="120" as="geometry" />
        </mxCell>
        <mxCell id="WLHqO2OZkGNbgsktWJH0-1800" value="تتم زيادة هذا المومنتم عندما يكون اللاعب منتمي الى الشرطة وتتم زيادته عندما يبدأ بسجن وتحرير مخالفات" style="text;strokeColor=none;fillColor=none;align=left;verticalAlign=middle;spacingLeft=4;spacingRight=4;overflow=hidden;points=[[0,0.5],[1,0.5]];portConstraint=eastwest;rotatable=0;whiteSpace=wrap;html=1;" vertex="1" parent="WLHqO2OZkGNbgsktWJH0-1799">
          <mxGeometry y="30" width="130" height="90" as="geometry" />
        </mxCell>
        <mxCell id="WLHqO2OZkGNbgsktWJH0-1801" value="" style="curved=1;endArrow=classic;html=1;rounded=0;fillColor=#b1ddf0;strokeColor=#10739e;" edge="1" parent="1" target="WLHqO2OZkGNbgsktWJH0-1799">
          <mxGeometry width="50" height="50" relative="1" as="geometry">
            <mxPoint x="1750" y="551.31" as="sourcePoint" />
            <mxPoint x="1910" y="612.44" as="targetPoint" />
            <Array as="points">
              <mxPoint x="1830" y="581.31" />
              <mxPoint x="1840" y="621.31" />
              <mxPoint x="1990" y="681.31" />
              <mxPoint x="2020" y="691.31" />
            </Array>
          </mxGeometry>
        </mxCell>
        <mxCell id="WLHqO2OZkGNbgsktWJH0-1802" value="&lt;span style=&quot;font-size: x-small;&quot;&gt;زيادة نسبة المكافأة الأسبوعية بـ&lt;/span&gt;&lt;br style=&quot;font-size: x-small;&quot;&gt;&lt;span style=&quot;font-size: x-small;&quot;&gt;5%&lt;/span&gt;" style="rounded=1;fillColor=#f8cecc;strokeColor=#b85450;strokeWidth=3;shadow=0;html=1;arcSize=50;" vertex="1" parent="1">
          <mxGeometry x="1370" y="711.31" width="125" height="62.02" as="geometry" />
        </mxCell>
        <mxCell id="WLHqO2OZkGNbgsktWJH0-1803" value="&lt;div&gt;&lt;font size=&quot;1&quot;&gt;الحصول على نسبة 5% من&lt;/font&gt;&lt;/div&gt;&lt;div&gt;&lt;font size=&quot;1&quot;&gt;المخالفات التي يعطيها للمواطنين&lt;/font&gt;&lt;/div&gt;" style="rounded=1;fillColor=#d5e8d4;strokeColor=#82b366;strokeWidth=3;shadow=0;html=1;arcSize=50;" vertex="1" parent="1">
          <mxGeometry x="1310" y="621.1199999999999" width="154" height="67.67" as="geometry" />
        </mxCell>
        <mxCell id="WLHqO2OZkGNbgsktWJH0-1804" value="&lt;font size=&quot;1&quot;&gt;الحصول على تخفيض عام عندما&lt;/font&gt;&lt;div&gt;&lt;font size=&quot;1&quot;&gt;يقوم الشرطي بتصليح مركبته&lt;/font&gt;&lt;/div&gt;" style="rounded=1;fillColor=#ffe6cc;strokeColor=#d79b00;strokeWidth=3;shadow=0;html=1;arcSize=50;" vertex="1" parent="1">
          <mxGeometry x="1320" y="541.1199999999999" width="140" height="61.35" as="geometry" />
        </mxCell>
        <mxCell id="WLHqO2OZkGNbgsktWJH0-1805" value="" style="endArrow=none;html=1;rounded=0;fillColor=#f8cecc;strokeColor=#b85450;" edge="1" parent="1" source="WLHqO2OZkGNbgsktWJH0-1783" target="WLHqO2OZkGNbgsktWJH0-1804">
          <mxGeometry width="50" height="50" relative="1" as="geometry">
            <mxPoint x="1480" y="395.60000000000014" as="sourcePoint" />
            <mxPoint x="1435" y="423.60000000000014" as="targetPoint" />
            <Array as="points" />
          </mxGeometry>
        </mxCell>
        <mxCell id="WLHqO2OZkGNbgsktWJH0-1806" value="" style="endArrow=none;html=1;rounded=0;fillColor=#f8cecc;strokeColor=#b85450;" edge="1" parent="1" source="WLHqO2OZkGNbgsktWJH0-1783" target="WLHqO2OZkGNbgsktWJH0-1803">
          <mxGeometry width="50" height="50" relative="1" as="geometry">
            <mxPoint x="1465" y="461.1199999999999" as="sourcePoint" />
            <mxPoint x="1420" y="489.1199999999999" as="targetPoint" />
            <Array as="points" />
          </mxGeometry>
        </mxCell>
        <mxCell id="WLHqO2OZkGNbgsktWJH0-1807" value="" style="endArrow=none;html=1;rounded=0;fillColor=#f8cecc;strokeColor=#b85450;entryX=0.994;entryY=0.373;entryDx=0;entryDy=0;entryPerimeter=0;" edge="1" parent="1" source="WLHqO2OZkGNbgsktWJH0-1783" target="WLHqO2OZkGNbgsktWJH0-1802">
          <mxGeometry width="50" height="50" relative="1" as="geometry">
            <mxPoint x="1480" y="509.1199999999999" as="sourcePoint" />
            <mxPoint x="1435" y="537.1199999999999" as="targetPoint" />
            <Array as="points" />
          </mxGeometry>
        </mxCell>
        <mxCell id="WLHqO2OZkGNbgsktWJH0-1808" value="&lt;div&gt;&lt;font size=&quot;1&quot;&gt;الحصول على نسبة 5% من&lt;/font&gt;&lt;/div&gt;&lt;div&gt;&lt;font size=&quot;1&quot;&gt;المخالفات التي يعطيها للمواطنين&lt;/font&gt;&lt;/div&gt;" style="rounded=1;fillColor=#ffe6cc;strokeColor=#d79b00;strokeWidth=3;shadow=0;html=1;arcSize=50;" vertex="1" parent="1">
          <mxGeometry x="1340" y="341.30999999999995" width="124" height="51" as="geometry" />
        </mxCell>
        <mxCell id="WLHqO2OZkGNbgsktWJH0-1809" value="&lt;font size=&quot;1&quot;&gt;امكانية معاقبة المجرمين من مراكز&lt;br&gt;اخرى غير مركز لوس سانتوس&lt;/font&gt;" style="rounded=1;fillColor=#f8cecc;strokeColor=#b85450;strokeWidth=3;shadow=0;html=1;arcSize=50;" vertex="1" parent="1">
          <mxGeometry x="1454" y="281.68000000000006" width="120" height="51.13" as="geometry" />
        </mxCell>
        <mxCell id="WLHqO2OZkGNbgsktWJH0-1810" value="&lt;font size=&quot;1&quot;&gt;زيادة فرصة الفوز عندما يقوم بـ&lt;br&gt;tackle Game&lt;/font&gt;" style="rounded=1;fillColor=#d5e8d4;strokeColor=#82b366;strokeWidth=3;shadow=0;html=1;arcSize=50;" vertex="1" parent="1">
          <mxGeometry x="1360" y="432.80999999999995" width="120" height="60.19" as="geometry" />
        </mxCell>
        <mxCell id="WLHqO2OZkGNbgsktWJH0-1811" value="" style="endArrow=none;html=1;rounded=0;fillColor=#f8cecc;strokeColor=#b85450;exitX=0.5;exitY=0;exitDx=0;exitDy=0;" edge="1" parent="1" source="WLHqO2OZkGNbgsktWJH0-1785" target="WLHqO2OZkGNbgsktWJH0-1809">
          <mxGeometry width="50" height="50" relative="1" as="geometry">
            <mxPoint x="1660" y="228.1300000000001" as="sourcePoint" />
            <mxPoint x="1660" y="169.1300000000001" as="targetPoint" />
            <Array as="points" />
          </mxGeometry>
        </mxCell>
        <mxCell id="WLHqO2OZkGNbgsktWJH0-1812" value="" style="endArrow=none;html=1;rounded=0;fillColor=#f8cecc;strokeColor=#b85450;" edge="1" parent="1" source="WLHqO2OZkGNbgsktWJH0-1785" target="WLHqO2OZkGNbgsktWJH0-1810">
          <mxGeometry width="50" height="50" relative="1" as="geometry">
            <mxPoint x="1582.5" y="280.6300000000001" as="sourcePoint" />
            <mxPoint x="1567.5" y="209.6300000000001" as="targetPoint" />
            <Array as="points" />
          </mxGeometry>
        </mxCell>
        <mxCell id="WLHqO2OZkGNbgsktWJH0-1813" value="" style="endArrow=none;html=1;rounded=0;fillColor=#f8cecc;strokeColor=#b85450;" edge="1" parent="1" source="WLHqO2OZkGNbgsktWJH0-1785" target="WLHqO2OZkGNbgsktWJH0-1808">
          <mxGeometry width="50" height="50" relative="1" as="geometry">
            <mxPoint x="1638.2499999999998" y="266.0300000000002" as="sourcePoint" />
            <mxPoint x="1590" y="280.6256250000001" as="targetPoint" />
            <Array as="points" />
          </mxGeometry>
        </mxCell>
      </root>
    </mxGraphModel>
  </diagram>
</mxfile>
